<svg width="116" height="20" viewBox="0 0 116 20" fill="none" xmlns="http://www.w3.org/2000/svg">
<path fill-rule="evenodd" clip-rule="evenodd" d="M19.2397 7.1387H12.6732L10.6778 1.17324C10.5796 0.882566 10.3073 0.699219 9.9993 0.699219C9.69128 0.699219 9.41898 0.882566 9.32077 1.17324L7.32538 7.1387H0.714229C0.321403 7.1387 -9.88142e-06 7.46067 -9.88142e-06 7.8542C-9.88142e-06 7.89445 0.00445652 7.93916 0.0133794 7.97494C0.0223123 8.13145 0.0937352 8.30586 0.31247 8.48026L5.70942 12.2903L3.63813 18.3228C3.53546 18.6135 3.63813 18.9399 3.88366 19.1278C4.01311 19.2217 4.13364 19.3022 4.28542 19.3022C4.43273 19.3022 4.60682 19.2261 4.73181 19.1412L9.9993 15.3803L15.2668 19.1412C15.3918 19.2306 15.5659 19.3022 15.7132 19.3022C15.865 19.3022 15.9855 19.2261 16.1105 19.1278C16.3605 18.9399 16.4587 18.618 16.356 18.3228L14.2847 12.2903L19.637 8.44447L19.7665 8.33267C19.8825 8.20746 19.9986 8.03753 19.9986 7.85418C19.9986 7.46066 19.6325 7.13868 19.2397 7.13868L19.2397 7.1387Z" fill="#0D6B6A"/>
<path fill-rule="evenodd" clip-rule="evenodd" d="M43.2397 7.1387H36.6732L34.6778 1.17324C34.5796 0.882566 34.3073 0.699219 33.9993 0.699219C33.6913 0.699219 33.419 0.882566 33.3208 1.17324L31.3254 7.1387H24.7142C24.3214 7.1387 24 7.46067 24 7.8542C24 7.89445 24.0045 7.93916 24.0134 7.97494C24.0223 8.13145 24.0937 8.30586 24.3125 8.48026L29.7094 12.2903L27.6381 18.3228C27.5355 18.6135 27.6381 18.9399 27.8837 19.1278C28.0131 19.2217 28.1336 19.3022 28.2854 19.3022C28.4327 19.3022 28.6068 19.2261 28.7318 19.1412L33.9993 15.3803L39.2668 19.1412C39.3918 19.2306 39.5659 19.3022 39.7132 19.3022C39.865 19.3022 39.9855 19.2261 40.1105 19.1278C40.3605 18.9399 40.4587 18.618 40.356 18.3228L38.2847 12.2903L43.637 8.44447L43.7665 8.33267C43.8825 8.20746 43.9986 8.03753 43.9986 7.85418C43.9986 7.46066 43.6325 7.13868 43.2397 7.13868L43.2397 7.1387Z" fill="#0D6B6A"/>
<path fill-rule="evenodd" clip-rule="evenodd" d="M67.2397 7.1387H60.6732L58.6778 1.17324C58.5796 0.882566 58.3073 0.699219 57.9993 0.699219C57.6913 0.699219 57.419 0.882566 57.3208 1.17324L55.3254 7.1387H48.7142C48.3214 7.1387 48 7.46067 48 7.8542C48 7.89445 48.0045 7.93916 48.0134 7.97494C48.0223 8.13145 48.0937 8.30586 48.3125 8.48026L53.7094 12.2903L51.6381 18.3228C51.5355 18.6135 51.6381 18.9399 51.8837 19.1278C52.0131 19.2217 52.1336 19.3022 52.2854 19.3022C52.4327 19.3022 52.6068 19.2261 52.7318 19.1412L57.9993 15.3803L63.2668 19.1412C63.3918 19.2306 63.5659 19.3022 63.7132 19.3022C63.865 19.3022 63.9855 19.2261 64.1105 19.1278C64.3605 18.9399 64.4587 18.618 64.356 18.3228L62.2847 12.2903L67.637 8.44447L67.7665 8.33267C67.8825 8.20746 67.9986 8.03753 67.9986 7.85418C67.9986 7.46066 67.6325 7.13868 67.2397 7.13868L67.2397 7.1387Z" fill="#0D6B6A"/>
<path fill-rule="evenodd" clip-rule="evenodd" d="M91.2397 7.1387H84.6732L82.6778 1.17324C82.5796 0.882566 82.3073 0.699219 81.9993 0.699219C81.6913 0.699219 81.419 0.882566 81.3208 1.17324L79.3254 7.1387H72.7142C72.3214 7.1387 72 7.46067 72 7.8542C72 7.89445 72.0045 7.93916 72.0134 7.97494C72.0223 8.13145 72.0937 8.30586 72.3125 8.48026L77.7094 12.2903L75.6381 18.3228C75.5355 18.6135 75.6381 18.9399 75.8837 19.1278C76.0131 19.2217 76.1336 19.3022 76.2854 19.3022C76.4327 19.3022 76.6068 19.2261 76.7318 19.1412L81.9993 15.3803L87.2668 19.1412C87.3918 19.2306 87.5659 19.3022 87.7132 19.3022C87.865 19.3022 87.9855 19.2261 88.1105 19.1278C88.3605 18.9399 88.4587 18.618 88.356 18.3228L86.2847 12.2903L91.637 8.44447L91.7665 8.33267C91.8825 8.20746 91.9986 8.03753 91.9986 7.85418C91.9986 7.46066 91.6325 7.13868 91.2397 7.13868L91.2397 7.1387Z" fill="#0D6B6A"/>
<path fill-rule="evenodd" clip-rule="evenodd" d="M115.24 7.1387H108.673L106.678 1.17324C106.58 0.882566 106.307 0.699219 105.999 0.699219C105.691 0.699219 105.419 0.882566 105.321 1.17324L103.325 7.1387H96.7142C96.3214 7.1387 96 7.46067 96 7.8542C96 7.89445 96.0045 7.93916 96.0134 7.97494C96.0223 8.13145 96.0937 8.30586 96.3125 8.48026L101.709 12.2903L99.6381 18.3228C99.5355 18.6135 99.6381 18.9399 99.8837 19.1278C100.013 19.2217 100.134 19.3022 100.285 19.3022C100.433 19.3022 100.607 19.2261 100.732 19.1412L105.999 15.3803L111.267 19.1412C111.392 19.2306 111.566 19.3022 111.713 19.3022C111.865 19.3022 111.985 19.2261 112.11 19.1278C112.36 18.9399 112.459 18.618 112.356 18.3228L110.285 12.2903L115.637 8.44447L115.766 8.33267C115.883 8.20746 115.999 8.03753 115.999 7.85418C115.999 7.46066 115.633 7.13868 115.24 7.13868L115.24 7.1387Z" fill="#0D6B6A"/>
</svg>
