<svg width="208" height="69" viewBox="0 0 208 69" fill="none" xmlns="http://www.w3.org/2000/svg">
<path d="M28.15 61.24C28.09 62.98 27.43 64.45 26.17 65.65C24.91 66.85 23.41 67.42 21.67 67.36C19.93 67.3 18.46 66.64 17.26 65.38C16.06 64.12 15.49 62.62 15.55 60.88C15.73 55.12 15.73 43.36 15.55 25.6L11.05 28.57C9.61 29.53 8.02 29.86 6.28 29.56C4.6 29.2 3.28 28.3 2.32 26.86C1.36 25.42 1.03 23.86 1.33 22.18C1.69 20.44 2.59 19.09 4.03 18.13L6.82 16.33C7.84 15.67 8.5 15.25 8.8 15.07C9.1 14.83 9.52 14.5 10.06 14.08C10.6 13.6 11.05 13.12 11.41 12.64L12.76 10.75C13.12 10.39 13.3 9.67 13.3 8.59C13.72 7.03 14.29 5.77 15.01 4.81C16.75 2.53 19.03 1.48 21.85 1.66C24.07 1.84 25.75 2.89 26.89 4.81C27.13 5.29 27.34 5.8 27.52 6.34C27.58 6.64 27.64 7 27.7 7.41999C27.76 7.84 27.82 8.32 27.88 8.86C27.94 9.76 27.97 11.02 27.97 12.64C28.03 14.98 28.09 18.37 28.15 22.81C28.27 44.41 28.27 57.22 28.15 61.24ZM85.9209 67.54C84.9009 67.48 83.4909 67.42 81.6909 67.36C79.8909 67.36 78.2409 67.33 76.7409 67.27C75.3009 67.27 73.9509 67.27 72.6909 67.27C71.0109 67.27 68.5209 67.33 65.2209 67.45C60.3009 67.63 56.4309 67.36 53.6109 66.64C49.4109 65.56 46.7109 63.37 45.5109 60.07C44.3709 57.13 44.7609 53.98 46.6809 50.62C47.8209 48.76 52.1409 43.75 59.6409 35.59C67.2009 27.37 71.2509 22.69 71.7909 21.55C72.2109 20.65 72.3009 19.63 72.0609 18.49C71.4609 15.67 69.7509 14.26 66.9309 14.26C65.4309 14.26 63.9609 14.65 62.5209 15.43C61.1409 16.21 60.0609 17.26 59.2809 18.58C59.1609 18.82 59.0109 19.3 58.8309 20.02C58.7709 20.2 58.7109 20.38 58.6509 20.56C58.6509 20.74 58.6209 20.95 58.5609 21.19C58.5609 21.37 58.5609 21.55 58.5609 21.73L58.1109 24.07C57.6309 25.75 56.6409 27.07 55.1409 28.03C53.7009 28.93 52.1409 29.17 50.4609 28.75C48.7809 28.27 47.4609 27.28 46.5009 25.78C45.6009 24.28 45.3609 22.66 45.7809 20.92C45.9009 20.62 45.9909 20.2 46.0509 19.66C46.2909 18.4 46.4109 17.74 46.4109 17.68C46.7709 15.46 47.4309 13.6 48.3909 12.1C50.3109 8.74 52.9809 6.13 56.4009 4.27C59.8209 2.35 63.3609 1.39 67.0209 1.39C71.1009 1.45 74.7609 2.71 78.0009 5.17C81.2409 7.57 83.3709 11.02 84.3909 15.52C85.2909 19.6 84.9009 23.47 83.2209 27.13C81.9009 29.77 75.3609 37.57 63.6009 50.53L60.8109 53.14C60.3309 53.62 59.9109 54.13 59.5509 54.67C60.9909 54.79 62.7009 54.79 64.6809 54.67C68.2209 54.55 70.8909 54.49 72.6909 54.49C72.7509 54.49 77.2209 54.58 86.1009 54.76C87.8409 54.82 89.3109 55.48 90.5109 56.74C91.7109 58 92.2809 59.53 92.2209 61.33C92.2209 63.07 91.5909 64.54 90.3309 65.74C89.0709 66.94 87.6009 67.54 85.9209 67.54ZM122.646 67.27C119.106 66.79 115.956 65.68 113.196 63.94C110.436 62.14 108.216 59.92 106.536 57.28C104.856 54.64 103.506 51.85 102.486 48.91C101.526 45.97 100.896 42.94 100.596 39.82C100.056 33.46 100.746 27.13 102.666 20.83C104.586 14.59 107.616 9.61 111.756 5.89C112.956 4.87 114.576 3.91 116.616 3.01C116.736 3.01 117.156 2.86 117.876 2.56C118.596 2.26 119.166 1.99 119.586 1.75C120.906 1.09 122.226 0.909996 123.546 1.21C124.866 1.45 126.036 2.08 127.056 3.1C128.016 3.22 128.706 3.31 129.126 3.37C132.426 3.97 135.156 4.84 137.316 5.98C141.936 8.68 145.086 14.17 146.766 22.45C147.786 27.31 148.266 32.47 148.206 37.93C148.086 45.55 146.196 52.15 142.536 57.73C140.376 61.03 137.586 63.55 134.166 65.29C130.806 67.15 126.966 67.81 122.646 67.27ZM124.086 54.04C127.326 54.4 129.966 53.11 132.006 50.17C134.106 46.81 135.186 42.67 135.246 37.75C135.306 33.31 134.946 29.14 134.166 25.24C133.866 23.68 133.476 22.33 132.996 21.19C132.576 19.99 132.186 19.15 131.826 18.67C131.526 18.13 131.256 17.8 131.016 17.68C130.236 17.26 128.976 16.9 127.236 16.6C126.936 16.6 126.606 16.57 126.246 16.51C125.886 16.45 125.496 16.39 125.076 16.33C124.656 16.27 124.326 16.24 124.086 16.24C122.946 16 121.896 15.76 120.936 15.52C120.516 15.76 120.216 15.97 120.036 16.15C117.876 18.07 116.136 21.13 114.816 25.33C113.496 29.53 113.016 33.94 113.376 38.56C113.856 43.12 115.026 46.75 116.886 49.45C118.746 52.15 121.146 53.68 124.086 54.04ZM177.73 49.45C174.85 49.51 171.55 49.6 167.83 49.72C166.09 49.78 164.59 49.21 163.33 48.01C162.07 46.81 161.41 45.34 161.35 43.6C161.29 41.86 161.86 40.36 163.06 39.1C164.26 37.84 165.73 37.18 167.47 37.12L177.64 36.94V27.76C177.7 26.02 178.33 24.55 179.53 23.35C180.79 22.15 182.29 21.58 184.03 21.64C185.77 21.64 187.24 22.27 188.44 23.53C189.64 24.73 190.24 26.2 190.24 27.94C190.18 30.64 190.15 33.64 190.15 36.94L201.85 37.12C203.59 37.18 205.03 37.84 206.17 39.1C207.37 40.36 207.94 41.86 207.88 43.6C207.88 45.34 207.25 46.81 205.99 48.01C204.73 49.15 203.23 49.72 201.49 49.72C197.47 49.6 193.72 49.51 190.24 49.45C190.3 53.89 190.33 57.43 190.33 60.07C190.33 61.81 189.7 63.31 188.44 64.57C187.24 65.77 185.77 66.37 184.03 66.37C182.29 66.37 180.79 65.77 179.53 64.57C178.33 63.31 177.73 61.81 177.73 60.07V49.45Z" fill="#CB0F4C"/>
</svg>
