<svg width="149" height="69" viewBox="0 0 149 69" fill="none" xmlns="http://www.w3.org/2000/svg">
<path d="M28.15 61.24C28.09 62.98 27.43 64.45 26.17 65.65C24.91 66.85 23.41 67.42 21.67 67.36C19.93 67.3 18.46 66.64 17.26 65.38C16.06 64.12 15.49 62.62 15.55 60.88C15.73 55.12 15.73 43.36 15.55 25.6L11.05 28.57C9.61 29.53 8.02 29.86 6.28 29.56C4.6 29.2 3.28 28.3 2.32 26.86C1.36 25.42 1.03 23.86 1.33 22.18C1.69 20.44 2.59 19.09 4.03 18.13L6.82 16.33C7.84 15.67 8.5 15.25 8.8 15.07C9.1 14.83 9.52 14.5 10.06 14.08C10.6 13.6 11.05 13.12 11.41 12.64L12.76 10.75C13.12 10.39 13.3 9.67 13.3 8.59C13.72 7.03 14.29 5.77 15.01 4.81C16.75 2.53 19.03 1.48 21.85 1.66C24.07 1.84 25.75 2.89 26.89 4.81C27.13 5.29 27.34 5.8 27.52 6.34C27.58 6.64 27.64 7 27.7 7.41999C27.76 7.84 27.82 8.32 27.88 8.86C27.94 9.76 27.97 11.02 27.97 12.64C28.03 14.98 28.09 18.37 28.15 22.81C28.27 44.41 28.27 57.22 28.15 61.24ZM49.9209 61.06C48.7809 59.86 47.7609 58.24 46.8609 56.2L46.0509 54.31C45.8109 53.71 45.6009 53.26 45.4209 52.96C44.7009 51.52 44.5809 50.02 45.0609 48.46C45.5409 46.9 46.5009 45.76 47.9409 45.04C49.4409 44.26 50.9709 44.11 52.5309 44.59C54.0909 45.07 55.2609 46.06 56.0409 47.56C56.3409 48.16 56.6709 48.88 57.0309 49.72L57.7509 51.43C58.0509 52.21 58.3209 52.72 58.5609 52.96C59.4009 53.8 60.6609 54.46 62.3409 54.94C64.0809 55.42 66.0009 55.54 68.1009 55.3C70.2609 55.06 72.1209 54.52 73.6809 53.68C75.2409 52.84 76.3209 51.88 76.9209 50.8C77.2809 50.14 77.4009 48.76 77.2809 46.66C76.9809 42.1 73.3809 39.1 66.4809 37.66C64.5609 38.14 62.8509 37.72 61.3509 36.4C60.3909 35.8 59.6409 34.99 59.1009 33.97C58.6209 32.89 58.4409 31.78 58.5609 30.64C58.8009 29.02 59.5509 27.7 60.8109 26.68C62.1309 25.66 63.6009 25.24 65.2209 25.42C65.4609 25.48 65.7309 25.54 66.0309 25.6C66.4509 25.48 66.9009 25.39 67.3809 25.33C67.8609 25.21 68.1909 25.15 68.3709 25.15C68.6109 25.09 68.8809 25.03 69.1809 24.97C69.4809 24.85 69.7809 24.7 70.0809 24.52C71.8809 23.5 72.8409 22.39 72.9609 21.19C73.0209 19.81 72.3609 18.37 70.9809 16.87C69.2409 15.01 67.1709 13.9 64.7709 13.54C62.3709 13.12 59.8809 13.69 57.3009 15.25L56.7609 15.88L55.9509 17.14C55.4709 17.86 55.0809 18.43 54.7809 18.85C53.7609 20.11 52.4109 20.86 50.7309 21.1C49.1109 21.28 47.6709 20.86 46.4109 19.84C45.1509 18.82 44.4009 17.5 44.1609 15.88C43.9809 14.2 44.4009 12.73 45.4209 11.47C45.6009 11.29 45.8109 11.02 46.0509 10.66L46.9509 9.22C48.0909 7.54 49.3209 6.25 50.6409 5.34999C54.0609 3.07 57.6609 1.81 61.4409 1.56999C65.2809 1.33 68.7309 1.87 71.7909 3.19C74.8509 4.51 77.4909 6.37 79.7109 8.77C83.4309 12.79 85.1109 17.2 84.7509 22C84.5709 25.42 83.2809 28.42 80.8809 31C85.9809 34.66 88.7409 39.64 89.1609 45.94C89.4609 50.38 88.8009 53.98 87.1809 56.74C85.4409 59.8 82.9509 62.2 79.7109 63.94C76.4709 65.62 73.0509 66.67 69.4509 67.09C65.8509 67.51 62.2809 67.24 58.7409 66.28C55.2609 65.32 52.3209 63.58 49.9209 61.06ZM122.909 67.27C119.369 66.79 116.219 65.68 113.459 63.94C110.699 62.14 108.479 59.92 106.799 57.28C105.119 54.64 103.769 51.85 102.749 48.91C101.789 45.97 101.159 42.94 100.859 39.82C100.319 33.46 101.009 27.13 102.929 20.83C104.849 14.59 107.879 9.61 112.019 5.89C113.219 4.87 114.839 3.91 116.879 3.01C116.999 3.01 117.419 2.86 118.139 2.56C118.859 2.26 119.429 1.99 119.849 1.75C121.169 1.09 122.489 0.909996 123.809 1.21C125.129 1.45 126.299 2.08 127.319 3.1C128.279 3.22 128.969 3.31 129.389 3.37C132.689 3.97 135.419 4.84 137.579 5.98C142.199 8.68 145.349 14.17 147.029 22.45C148.049 27.31 148.529 32.47 148.469 37.93C148.349 45.55 146.459 52.15 142.799 57.73C140.639 61.03 137.849 63.55 134.429 65.29C131.069 67.15 127.229 67.81 122.909 67.27ZM124.349 54.04C127.589 54.4 130.229 53.11 132.269 50.17C134.369 46.81 135.449 42.67 135.509 37.75C135.569 33.31 135.209 29.14 134.429 25.24C134.129 23.68 133.739 22.33 133.259 21.19C132.839 19.99 132.449 19.15 132.089 18.67C131.789 18.13 131.519 17.8 131.279 17.68C130.499 17.26 129.239 16.9 127.499 16.6C127.199 16.6 126.869 16.57 126.509 16.51C126.149 16.45 125.759 16.39 125.339 16.33C124.919 16.27 124.589 16.24 124.349 16.24C123.209 16 122.159 15.76 121.199 15.52C120.779 15.76 120.479 15.97 120.299 16.15C118.139 18.07 116.399 21.13 115.079 25.33C113.759 29.53 113.279 33.94 113.639 38.56C114.119 43.12 115.289 46.75 117.149 49.45C119.009 52.15 121.409 53.68 124.349 54.04Z" fill="#CB0F4C"/>
</svg>
