<svg width="104" height="67" viewBox="0 0 104 67" fill="none" xmlns="http://www.w3.org/2000/svg">
<path d="M42.99 66.54C41.97 66.48 40.56 66.42 38.76 66.36C36.96 66.36 35.31 66.33 33.81 66.27C32.37 66.27 31.02 66.27 29.76 66.27C28.08 66.27 25.59 66.33 22.29 66.45C17.37 66.63 13.5 66.36 10.68 65.64C6.48 64.56 3.78 62.37 2.58 59.07C1.44 56.13 1.83 52.98 3.75 49.62C4.89 47.76 9.21 42.75 16.71 34.59C24.27 26.37 28.32 21.69 28.86 20.55C29.28 19.65 29.37 18.63 29.13 17.49C28.53 14.67 26.82 13.26 24 13.26C22.5 13.26 21.03 13.65 19.59 14.43C18.21 15.21 17.13 16.26 16.35 17.58C16.23 17.82 16.08 18.3 15.9 19.02C15.84 19.2 15.78 19.38 15.72 19.56C15.72 19.74 15.69 19.95 15.63 20.19C15.63 20.37 15.63 20.55 15.63 20.73L15.18 23.07C14.7 24.75 13.71 26.07 12.21 27.03C10.77 27.93 9.21 28.17 7.53 27.75C5.85 27.27 4.53 26.28 3.57 24.78C2.67 23.28 2.43 21.66 2.85 19.92C2.97 19.62 3.06 19.2 3.12 18.66C3.36 17.4 3.48 16.74 3.48 16.68C3.84 14.46 4.5 12.6 5.46 11.1C7.38 7.74 10.05 5.13 13.47 3.27C16.89 1.35 20.43 0.389997 24.09 0.389997C28.17 0.449996 31.83 1.71 35.07 4.17C38.31 6.57 40.44 10.02 41.46 14.52C42.36 18.6 41.97 22.47 40.29 26.13C38.97 28.77 32.43 36.57 20.67 49.53L17.88 52.14C17.4 52.62 16.98 53.13 16.62 53.67C18.06 53.79 19.77 53.79 21.75 53.67C25.29 53.55 27.96 53.49 29.76 53.49C29.82 53.49 34.29 53.58 43.17 53.76C44.91 53.82 46.38 54.48 47.58 55.74C48.78 57 49.35 58.53 49.29 60.33C49.29 62.07 48.66 63.54 47.4 64.74C46.14 65.94 44.67 66.54 42.99 66.54ZM83.9913 66C82.3113 66 80.8413 65.46 79.5813 64.38C78.3213 63.24 77.6913 61.68 77.6913 59.7L77.7813 49.98C72.3813 49.92 67.8513 49.74 64.1913 49.44C61.1313 49.14 58.6413 48.33 56.7213 47.01C54.8613 45.63 53.9313 43.71 53.9313 41.25C53.9313 39.75 54.2013 38.4 54.7413 37.2C55.2813 36 56.1513 34.71 57.3513 33.33C65.4513 23.85 71.8713 14.61 76.6113 5.61C78.4113 2.25 80.6913 0.569995 83.4513 0.569995C85.0713 0.569995 86.4813 1.14 87.6813 2.28C88.9413 3.36 89.6013 4.68 89.6613 6.24C90.0213 15.48 90.2913 25.83 90.4713 37.29L96.8613 37.02C98.8413 37.02 100.371 37.65 101.451 38.91C102.531 40.17 103.071 41.64 103.071 43.32C103.071 45 102.531 46.47 101.451 47.73C100.371 48.99 98.8413 49.62 96.8613 49.62L90.3813 49.8C90.3813 53.4 90.3513 56.76 90.2913 59.88C90.2313 61.8 89.5713 63.3 88.3113 64.38C87.0513 65.46 85.6113 66 83.9913 66ZM70.0413 37.56C71.8413 37.38 74.4513 37.35 77.8713 37.47C77.8713 33.09 77.8413 29.91 77.7813 27.93L70.0413 37.56Z" fill="#CB0F4C"/>
</svg>
