<svg width="167" height="69" viewBox="0 0 167 69" fill="none" xmlns="http://www.w3.org/2000/svg">
<path d="M30.58 67C28.9 67 27.43 66.46 26.17 65.38C24.91 64.24 24.28 62.68 24.28 60.7L24.37 50.98C18.97 50.92 14.44 50.74 10.78 50.44C7.72 50.14 5.23 49.33 3.31 48.01C1.45 46.63 0.52 44.71 0.52 42.25C0.52 40.75 0.79 39.4 1.33 38.2C1.87 37 2.74 35.71 3.94 34.33C12.04 24.85 18.46 15.61 23.2 6.61C25 3.25 27.28 1.56999 30.04 1.56999C31.66 1.56999 33.07 2.14 34.27 3.28C35.53 4.36 36.19 5.68 36.25 7.24C36.61 16.48 36.88 26.83 37.06 38.29L43.45 38.02C45.43 38.02 46.96 38.65 48.04 39.91C49.12 41.17 49.66 42.64 49.66 44.32C49.66 46 49.12 47.47 48.04 48.73C46.96 49.99 45.43 50.62 43.45 50.62L36.97 50.8C36.97 54.4 36.94 57.76 36.88 60.88C36.82 62.8 36.16 64.3 34.9 65.38C33.64 66.46 32.2 67 30.58 67ZM16.63 38.56C18.43 38.38 21.04 38.35 24.46 38.47C24.46 34.09 24.43 30.91 24.37 28.93L16.63 38.56ZM81.418 67.27C77.878 66.79 74.728 65.68 71.968 63.94C69.208 62.14 66.988 59.92 65.308 57.28C63.628 54.64 62.278 51.85 61.258 48.91C60.298 45.97 59.668 42.94 59.368 39.82C58.828 33.46 59.518 27.13 61.438 20.83C63.358 14.59 66.388 9.61 70.528 5.89C71.728 4.87 73.348 3.91 75.388 3.01C75.508 3.01 75.928 2.86 76.648 2.56C77.368 2.26 77.938 1.99 78.358 1.75C79.678 1.09 80.998 0.909996 82.318 1.21C83.638 1.45 84.808 2.08 85.828 3.1C86.788 3.22 87.478 3.31 87.898 3.37C91.198 3.97 93.928 4.84 96.088 5.98C100.708 8.68 103.858 14.17 105.538 22.45C106.558 27.31 107.038 32.47 106.978 37.93C106.858 45.55 104.968 52.15 101.308 57.73C99.148 61.03 96.358 63.55 92.938 65.29C89.578 67.15 85.738 67.81 81.418 67.27ZM82.858 54.04C86.098 54.4 88.738 53.11 90.778 50.17C92.878 46.81 93.958 42.67 94.018 37.75C94.078 33.31 93.718 29.14 92.938 25.24C92.638 23.68 92.248 22.33 91.768 21.19C91.348 19.99 90.958 19.15 90.598 18.67C90.298 18.13 90.028 17.8 89.788 17.68C89.008 17.26 87.748 16.9 86.008 16.6C85.708 16.6 85.378 16.57 85.018 16.51C84.658 16.45 84.268 16.39 83.848 16.33C83.428 16.27 83.098 16.24 82.858 16.24C81.718 16 80.668 15.76 79.708 15.52C79.288 15.76 78.988 15.97 78.808 16.15C76.648 18.07 74.908 21.13 73.588 25.33C72.268 29.53 71.788 33.94 72.148 38.56C72.628 43.12 73.798 46.75 75.658 49.45C77.518 52.15 79.918 53.68 82.858 54.04ZM136.502 49.45C133.622 49.51 130.322 49.6 126.602 49.72C124.862 49.78 123.362 49.21 122.102 48.01C120.842 46.81 120.182 45.34 120.122 43.6C120.062 41.86 120.632 40.36 121.832 39.1C123.032 37.84 124.502 37.18 126.242 37.12L136.412 36.94V27.76C136.472 26.02 137.102 24.55 138.302 23.35C139.562 22.15 141.062 21.58 142.802 21.64C144.542 21.64 146.012 22.27 147.212 23.53C148.412 24.73 149.012 26.2 149.012 27.94C148.952 30.64 148.922 33.64 148.922 36.94L160.622 37.12C162.362 37.18 163.802 37.84 164.942 39.1C166.142 40.36 166.712 41.86 166.652 43.6C166.652 45.34 166.022 46.81 164.762 48.01C163.502 49.15 162.002 49.72 160.262 49.72C156.242 49.6 152.492 49.51 149.012 49.45C149.072 53.89 149.102 57.43 149.102 60.07C149.102 61.81 148.472 63.31 147.212 64.57C146.012 65.77 144.542 66.37 142.802 66.37C141.062 66.37 139.562 65.77 138.302 64.57C137.102 63.31 136.502 61.81 136.502 60.07V49.45Z" fill="#CB0F4C"/>
</svg>
