<svg width="24" height="22" viewBox="0 0 24 22" fill="none" xmlns="http://www.w3.org/2000/svg">
<path fill-rule="evenodd" clip-rule="evenodd" d="M0 10.5007C0 10.1029 0.158018 9.72145 0.439291 9.44018C0.720564 9.15891 1.10205 9.00089 1.49983 9.00089H18.8769L12.4366 2.56361C12.155 2.28198 11.9968 1.90001 11.9968 1.50173C11.9968 1.10344 12.155 0.721474 12.4366 0.439846C12.7182 0.158218 13.1002 0 13.4985 0C13.8968 0 14.2787 0.158218 14.5604 0.439846L23.5594 9.43884C23.699 9.57816 23.8099 9.74367 23.8855 9.92589C23.9611 10.1081 24 10.3034 24 10.5007C24 10.698 23.9611 10.8933 23.8855 11.0756C23.8099 11.2578 23.699 11.4233 23.5594 11.5626L14.5604 20.5616C14.2787 20.8432 13.8968 21.0014 13.4985 21.0014C13.1002 21.0014 12.7182 20.8432 12.4366 20.5616C12.155 20.28 11.9968 19.898 11.9968 19.4997C11.9968 19.1014 12.155 18.7195 12.4366 18.4378L18.8769 12.0006H1.49983C1.10205 12.0006 0.720564 11.8425 0.439291 11.5613C0.158018 11.28 0 10.8985 0 10.5007Z" fill="white"/>
</svg>
