<svg width="80" height="80" viewBox="0 0 80 80" fill="none" xmlns="http://www.w3.org/2000/svg">
<g clip-path="url(#clip0_880_77)">
<path d="M8.33609 54.9306H10.1617L17.3442 63.3847C17.5669 63.6467 17.8934 63.7978 18.2373 63.7978C18.5813 63.7978 18.9078 63.6467 19.1305 63.3847L26.313 54.9306H55.9949C60.5914 54.9306 64.3309 51.1806 64.3309 46.5713V22.4219C64.3309 17.8125 60.5914 14.0625 55.9949 14.0625H19.3453C18.698 14.0625 18.1734 14.587 18.1734 15.2344C18.1734 15.8817 18.698 16.4062 19.3453 16.4062H55.9947C59.2988 16.4062 61.987 19.1048 61.987 22.4219V46.5713C61.987 49.8883 59.2989 52.5869 55.9947 52.5869H25.7706C25.4267 52.5869 25.1002 52.738 24.8775 53L18.2372 60.8159L11.5969 52.9998C11.3742 52.7378 11.0477 52.5867 10.7038 52.5867H8.33609C5.03203 52.5867 2.34375 49.8881 2.34375 46.5711V22.4219C2.34375 19.1048 5.03188 16.4062 8.33609 16.4062H13.9111C14.5584 16.4062 15.083 15.8817 15.083 15.2344C15.083 14.587 14.5584 14.0625 13.9111 14.0625H8.33609C3.73953 14.0625 0 17.8125 0 22.4219V46.5713C0 51.1806 3.73953 54.9306 8.33609 54.9306Z" fill="#CB0F4C"/>
<path d="M78.8281 48.8997C78.1808 48.8997 77.6562 49.4242 77.6562 50.0715V58.4462C77.6562 61.7633 74.9681 64.4618 71.6639 64.4618H69.2962C68.9523 64.4618 68.6258 64.6129 68.4031 64.875L61.7628 72.6909L55.1225 64.875C54.8998 64.6129 54.5733 64.4618 54.2294 64.4618H39.619C36.315 64.4618 33.6269 61.7633 33.6269 58.4462C33.6269 57.7989 33.1023 57.2743 32.455 57.2743C31.8076 57.2743 31.2831 57.7989 31.2831 58.4462C31.2831 63.0556 35.0226 66.8056 39.619 66.8056H53.6872L60.8697 75.2597C61.0923 75.5217 61.4189 75.6728 61.7628 75.6728C62.1067 75.6728 62.4333 75.5217 62.6559 75.2597L69.8384 66.8056H71.6641C76.2606 66.8056 80.0001 63.0556 80.0001 58.4462V50.0715C80 49.4242 79.4755 48.8997 78.8281 48.8997Z" fill="#CB0F4C"/>
<path d="M71.6639 25H67.8802C67.2328 25 66.7083 25.5245 66.7083 26.1719C66.7083 26.8192 67.2328 27.3437 67.8802 27.3437H71.6639C74.9681 27.3437 77.6562 30.0423 77.6562 33.3594V44.6664C77.6562 45.3137 78.1808 45.8383 78.8281 45.8383C79.4755 45.8383 80 45.3137 80 44.6664V33.3594C80 28.75 76.2605 25 71.6639 25Z" fill="#CB0F4C"/>
<path d="M34.5834 69.8951H23.9294C23.282 69.8951 22.7575 70.4196 22.7575 71.0669C22.7575 71.7143 23.282 72.2388 23.9294 72.2388H34.5834C36.0722 72.2388 37.2834 73.454 37.2834 74.9476C37.2834 76.4412 36.0722 77.6562 34.5834 77.6562H5.04391C3.555 77.6562 2.34375 76.4412 2.34375 74.9476C2.34375 73.454 3.555 72.2388 5.04391 72.2388H6.08078C6.45656 72.2388 6.80969 72.0585 7.03016 71.754L9.06641 68.9401L11.1028 71.754C11.3233 72.0583 11.6764 72.2388 12.0522 72.2388H18.5105C19.1578 72.2388 19.6823 71.7143 19.6823 71.0669C19.6823 70.4196 19.1578 69.8951 18.5105 69.8951H12.6508L10.0159 66.2541C9.79547 65.9498 9.44234 65.7693 9.06656 65.7693C8.69063 65.7693 8.33766 65.9496 8.11719 66.2541L5.4825 69.8951H5.04406C2.26266 69.8951 0 72.1616 0 74.9476C0 77.7333 2.26266 79.9999 5.04391 79.9999H34.5834C37.3647 79.9999 39.6272 77.7333 39.6272 74.9476C39.6272 72.1616 37.3647 69.8951 34.5834 69.8951Z" fill="#CB0F4C"/>
<path d="M45.4166 10.105H49.8252C50.4725 10.105 50.997 9.58047 50.997 8.93313C50.997 8.28578 50.4725 7.76125 49.8252 7.76125H45.4166C43.9278 7.76125 42.7166 6.54609 42.7166 5.0525C42.7166 3.55891 43.9278 2.34375 45.4166 2.34375H74.9561C76.445 2.34375 77.6562 3.55891 77.6562 5.0525C77.6562 6.54609 76.445 7.76125 74.9561 7.76125H73.9192C73.5434 7.76125 73.1903 7.94156 72.9698 8.24609L70.9336 11.06L68.8972 8.24609C68.6767 7.94172 68.3236 7.76125 67.9478 7.76125H55.2441C54.5967 7.76125 54.0722 8.28578 54.0722 8.93313C54.0722 9.58047 54.5967 10.105 55.2441 10.105H67.3494L69.9842 13.7459C70.2047 14.0503 70.5578 14.2308 70.9336 14.2308C71.3095 14.2308 71.6625 14.0505 71.883 13.7459L74.5177 10.105H74.9561C77.7373 10.105 80 7.83844 80 5.0525C80 2.26656 77.7373 0 74.9561 0H45.4166C42.6353 0 40.3728 2.26656 40.3728 5.0525C40.3728 7.83844 42.6353 10.105 45.4166 10.105Z" fill="#CB0F4C"/>
<path d="M14.3328 26.9409C14.3328 26.2936 13.8083 25.769 13.1609 25.769C12.5136 25.769 11.9891 26.2936 11.9891 26.9409V38.364C11.9891 39.0114 12.5136 39.5359 13.1609 39.5359C13.8083 39.5359 14.3328 39.0114 14.3328 38.364V26.9409Z" fill="#CB0F4C"/>
<path d="M19.1271 38.8437C18.4797 38.8437 17.9552 39.3683 17.9552 40.0156C17.9552 40.663 18.4797 41.1875 19.1271 41.1875H20.4178V43.2403C20.4178 43.8876 20.9424 44.4122 21.5897 44.4122C22.2371 44.4122 22.7616 43.8876 22.7616 43.2403V41.1875H24.0522C24.6996 41.1875 25.2241 40.663 25.2241 40.0156V35.0906C25.2241 34.4433 24.6996 33.9187 24.0522 33.9187H20.2989V31.3375H24.0522C24.6996 31.3375 25.2241 30.813 25.2241 30.1656C25.2241 29.5183 24.6996 28.9937 24.0522 28.9937H22.7616V26.9409C22.7616 26.2936 22.2371 25.769 21.5897 25.769C20.9424 25.769 20.4178 26.2936 20.4178 26.9409V28.9937H19.1271C18.4797 28.9937 17.9552 29.5183 17.9552 30.1656V35.0908C17.9552 35.7381 18.4797 36.2626 19.1271 36.2626H22.8803V38.8439H19.1271V38.8437Z" fill="#CB0F4C"/>
<path d="M29.3647 38.8438C28.7174 38.8438 28.1928 39.3683 28.1928 40.0156C28.1928 40.663 28.7174 41.1875 29.3647 41.1875H30.5863L30.3533 42.8935C30.2656 43.5347 30.7146 44.1255 31.3558 44.213C31.4096 44.2205 31.463 44.2239 31.5158 44.2239C32.0925 44.2239 32.5952 43.7978 32.6753 43.2105L32.9516 41.1875H35.43L35.1971 42.8935C35.1094 43.5347 35.5583 44.1255 36.1996 44.213C36.2533 44.2205 36.3067 44.2239 36.3596 44.2239C36.9363 44.2239 37.4389 43.7978 37.5191 43.2105L37.7953 41.1875H39.4491C40.0964 41.1875 40.621 40.663 40.621 40.0156C40.621 39.3683 40.0964 38.8438 39.4491 38.8438H38.1155L39.1407 31.3375H40.5688C41.2161 31.3375 41.7407 30.813 41.7407 30.1656C41.7407 29.5183 41.2161 28.9938 40.5688 28.9938H39.4608L39.7196 27.0996C39.8072 26.4583 39.3583 25.8675 38.7171 25.78C38.078 25.6899 37.4849 26.1411 37.3975 26.7825L37.0955 28.9938H34.6172L34.876 27.0996C34.9636 26.4583 34.5147 25.8675 33.8735 25.78C33.2344 25.6899 32.6413 26.1411 32.5539 26.7825L32.2519 28.9938H30.4844C29.8371 28.9938 29.3125 29.5183 29.3125 30.1656C29.3125 30.813 29.8371 31.3375 30.4844 31.3375H31.9316L30.9064 38.8438H29.3647ZM34.2969 31.3375H36.7753L35.7502 38.8438H33.2719L34.2969 31.3375Z" fill="#CB0F4C"/>
<path d="M48.5181 41.8741C47.7045 41.923 46.9328 41.6471 46.3433 41.0929C45.753 40.538 45.4278 39.7868 45.4278 38.9771C45.4278 38.3298 44.9033 37.8052 44.2559 37.8052C43.6086 37.8052 43.0841 38.3298 43.0841 38.9771C43.0841 40.4191 43.6869 41.8127 44.7381 42.8008C45.722 43.7254 46.9849 44.2238 48.3253 44.2238C48.4375 44.2238 48.5502 44.2204 48.6635 44.2133C51.2958 44.0501 53.4039 41.9419 53.5672 39.3096C53.6861 37.3949 52.7547 35.5685 51.1364 34.5427C50.1135 33.8944 49.5027 32.8237 49.5027 31.6785V31.6287C49.5027 30.9813 48.9781 30.4568 48.3308 30.4568C47.6834 30.4568 47.1589 30.9813 47.1589 31.6287V31.6785C47.1589 33.631 48.1769 35.4419 49.8819 36.5224C50.778 37.0905 51.2939 38.1027 51.228 39.1643C51.1391 40.5952 49.9489 41.7854 48.5181 41.8741Z" fill="#CB0F4C"/>
<path d="M13.1608 41.8801C12.5136 41.8801 11.9889 42.4048 11.9889 43.052C11.9889 43.6992 12.5136 44.2239 13.1608 44.2239C13.808 44.2239 14.3327 43.6992 14.3327 43.052C14.3327 42.4048 13.8081 41.8801 13.1608 41.8801Z" fill="#CB0F4C"/>
<path d="M48.3311 28.1123C48.9783 28.1123 49.503 27.5876 49.503 26.9404C49.503 26.2932 48.9783 25.7686 48.3311 25.7686C47.6839 25.7686 47.1592 26.2932 47.1592 26.9404C47.1592 27.5876 47.6839 28.1123 48.3311 28.1123Z" fill="#CB0F4C"/>
</g>
<defs>
<clipPath id="clip0_880_77">
<rect width="80" height="80" fill="white"/>
</clipPath>
</defs>
</svg>
