<svg width="31" height="30" viewBox="0 0 31 30" fill="none" xmlns="http://www.w3.org/2000/svg">
<path d="M29.76 0H1.24C0.554125 0 0 0.53625 0 1.2V28.8C0 29.4638 0.554125 30 1.24 30H29.76C30.4459 30 31 29.4638 31 28.8V1.2C31 0.53625 30.4459 0 29.76 0ZM16.9144 19.155C15.2133 21.4725 11.7955 22.1475 9.1295 21.1537C6.45575 20.1675 4.557 17.4338 4.78562 14.6475C4.84375 11.2388 8.08712 8.25 11.6095 8.36625C13.299 8.29125 14.8877 9 16.182 10.0013C15.6279 10.6088 15.0582 11.1938 14.446 11.7375C12.8921 10.6988 10.6795 10.4025 9.12562 11.6025C6.90137 13.0913 6.80063 16.605 8.93963 18.2063C11.0205 20.0325 14.9536 19.125 15.531 16.3275C14.229 16.3088 12.9192 16.3275 11.6172 16.2863C11.6134 15.5325 11.6095 14.7825 11.6134 14.0288C13.7911 14.0213 15.9727 14.0175 18.1544 14.0363C18.2822 15.81 18.0381 17.6925 16.9144 19.155ZM26.3113 15.9188C25.6602 15.9263 25.0092 15.93 24.3582 15.9338C24.3505 16.5638 24.3466 17.1938 24.3466 17.8237H22.3975C22.3897 17.1938 22.3898 16.5675 22.3859 15.9375C21.7349 15.93 21.0839 15.9263 20.4329 15.9188V14.04C21.0839 14.0325 21.7349 14.0288 22.3859 14.0288C22.3898 13.3988 22.3975 12.7688 22.4014 12.1388H24.3466L24.3582 14.0288C25.0092 14.0363 25.6602 14.0363 26.3113 14.04V15.9188Z" fill="white"/>
</svg>
