<svg width="86" height="86" viewBox="0 0 86 86" fill="none" xmlns="http://www.w3.org/2000/svg">
<rect width="86" height="86" rx="5" fill="url(#paint0_linear_880_340)"/>
<path d="M67.9274 38.6432C67.6307 38.4358 67.2375 38.4317 66.9365 38.6324L53.7411 47.4293L43.8139 23.0624C43.679 22.7315 43.3573 22.5151 42.9999 22.5151C42.6425 22.5151 42.3208 22.7315 42.1859 23.0624L32.2587 47.4293L19.0633 38.6323C18.7622 38.4315 18.369 38.4358 18.0724 38.6431C17.7758 38.8503 17.6364 39.2181 17.7214 39.5698L24.0868 65.9409C23.0933 66.3584 22.3938 67.3412 22.3938 68.4846C22.3938 70.0052 23.6309 71.2423 25.1514 71.2423H60.8483C62.3689 71.2423 63.6059 70.0051 63.6059 68.4846C63.6059 67.3412 62.9063 66.3584 61.9129 65.9409L68.2783 39.5698C68.3634 39.2181 68.224 38.8504 67.9274 38.6432ZM60.8484 69.4846H25.1514C24.6001 69.4846 24.1516 69.036 24.1516 68.4847C24.1516 67.9335 24.6002 67.4849 25.1514 67.4849H27.9696C28.4549 67.4849 28.8485 67.0914 28.8485 66.606C28.8485 66.1206 28.4549 65.7271 27.9696 65.7271H25.8434L21.2562 46.7228L30.0947 52.6151C30.8668 53.1298 31.7583 53.3951 32.6624 53.3951C33.1191 53.3951 33.5791 53.3274 34.0284 53.1899C35.3648 52.7783 36.4335 51.8002 36.9605 50.5064L42.9999 35.6824L44.3798 39.0695C44.5629 39.519 45.076 39.735 45.5253 39.5519C45.9748 39.3687 46.1908 38.8559 46.0076 38.4063L43.8138 33.0213C43.679 32.6904 43.3572 32.4741 42.9998 32.4741C42.6424 32.4741 42.3207 32.6904 42.1858 33.0213L35.3326 49.8431C35.0053 50.6466 34.3413 51.2542 33.5124 51.5094C32.6818 51.7636 31.7914 51.6336 31.0697 51.1526L20.6485 44.2051L19.9571 41.341L32.179 49.4889C32.3987 49.6352 32.6723 49.6753 32.9246 49.5977C33.1769 49.5203 33.381 49.3336 33.4805 49.0892L42.9999 25.7235L52.5191 49.0892C52.6188 49.3335 52.8228 49.5203 53.0751 49.5977C53.3272 49.6752 53.6011 49.6351 53.8206 49.4889L66.0426 41.341L65.3512 44.2051L54.9296 51.1528C54.4557 51.469 53.9036 51.6362 53.333 51.6362C53.0453 51.6362 52.761 51.5937 52.4886 51.51C51.6582 51.2543 50.9942 50.6468 50.6669 49.8433L47.4729 42.0034C47.2898 41.5538 46.7767 41.3379 46.3274 41.5211C45.8779 41.7042 45.6619 42.217 45.8451 42.6666L49.039 50.5064C49.5661 51.8003 50.6349 52.7783 51.972 53.1901C52.4125 53.3254 52.8704 53.3939 53.333 53.3939C54.2519 53.3939 55.1413 53.1246 55.9048 52.6151L64.7433 46.7227L60.1561 65.7268H31.7273C31.2419 65.7268 30.8484 66.1204 30.8484 66.6058C30.8484 67.0911 31.2419 67.4847 31.7273 67.4847H60.8452C60.8465 67.4847 60.8478 67.4849 60.8491 67.4849C60.8495 67.4849 60.85 67.4848 60.8505 67.4848C61.4008 67.486 61.8482 67.9339 61.8482 68.4845C61.8482 69.036 61.3996 69.4846 60.8484 69.4846Z" fill="white"/>
<path d="M43.0001 20.5154C44.5207 20.5154 45.7577 19.2783 45.7577 17.7578C45.7577 16.2373 44.5207 15 43.0001 15C41.4794 15 40.2424 16.2371 40.2424 17.7577C40.2424 19.2782 41.4794 20.5154 43.0001 20.5154ZM43.0001 16.7578C43.5514 16.7578 43.9999 17.2064 43.9999 17.7577C43.9999 18.3089 43.5513 18.7575 43.0001 18.7575C42.4488 18.7575 42.0002 18.3089 42.0002 17.7577C42.0002 17.2064 42.4487 16.7578 43.0001 16.7578Z" fill="white"/>
<path d="M18.5153 34.6668C18.5153 33.1462 17.2782 31.9092 15.7577 31.9092C14.2371 31.9092 13 33.1462 13 34.6668C13 36.1875 14.2371 37.4245 15.7577 37.4245C17.2782 37.4245 18.5153 36.1875 18.5153 34.6668ZM15.7577 35.6667C15.2063 35.6667 14.7578 35.2181 14.7578 34.6668C14.7578 34.1156 15.2064 33.667 15.7577 33.667C16.3089 33.667 16.7575 34.1156 16.7575 34.6668C16.7575 35.2181 16.309 35.6667 15.7577 35.6667Z" fill="white"/>
<path d="M70.2423 31.9092C68.7216 31.9092 67.4846 33.1463 67.4846 34.6668C67.4846 36.1873 68.7218 37.4245 70.2423 37.4245C71.7628 37.4245 72.9999 36.1875 72.9999 34.6668C72.9999 33.1462 71.7628 31.9092 70.2423 31.9092ZM70.2423 35.6667C69.6909 35.6667 69.2424 35.2181 69.2424 34.6668C69.2424 34.1156 69.691 33.667 70.2423 33.667C70.7935 33.667 71.2421 34.1155 71.2421 34.6668C71.2421 35.2182 70.7935 35.6667 70.2423 35.6667Z" fill="white"/>
<defs>
<linearGradient id="paint0_linear_880_340" x1="1.5" y1="1.5" x2="83.5" y2="83.5" gradientUnits="userSpaceOnUse">
<stop stop-color="#FB397A"/>
<stop offset="1" stop-color="#DD1759"/>
</linearGradient>
</defs>
</svg>
