<svg width="86" height="86" viewBox="0 0 86 86" fill="none" xmlns="http://www.w3.org/2000/svg">
<rect width="86" height="86" rx="5" fill="url(#paint0_linear_880_310)"/>
<path d="M47.638 28.4809C49.9824 26.9904 51.5422 24.3718 51.5422 21.3939C51.5424 16.7656 47.7768 13 43.1482 13C38.5198 13 34.7542 16.7656 34.7542 21.394C34.7542 24.3719 36.3142 26.9905 38.6584 28.4809C34.5547 29.3159 30.8546 31.2727 27.891 34.015L26.5426 32.6668L27.2494 31.96C27.5929 31.6165 27.782 31.16 27.782 30.6742C27.782 30.1885 27.5929 29.7318 27.2494 29.3884L25.7597 27.8988C25.0507 27.1898 23.8972 27.1899 23.1883 27.8988L20.5317 30.5553C19.8228 31.2643 19.8228 32.4177 20.5317 33.1267L22.0214 34.6164C22.3759 34.9709 22.8415 35.1482 23.3072 35.1482C23.7728 35.1482 24.2384 34.9709 24.5929 34.6164L25.2996 33.9096L26.648 35.2579C22.9358 39.2695 20.6632 44.6315 20.6632 50.515C20.6635 62.9133 30.7501 73 43.1482 73C55.5463 73 65.6331 62.9133 65.6331 50.5151C65.6332 39.6541 57.8924 30.5672 47.638 28.4809ZM23.2646 33.3735L21.7749 31.8838C21.7513 31.8603 21.7513 31.8218 21.7749 31.7983L24.4314 29.1418C24.4432 29.1299 24.4587 29.1241 24.4742 29.1241C24.4896 29.1241 24.5051 29.1299 24.5169 29.1418L26.0066 30.6314C26.011 30.6359 26.0243 30.6491 26.0243 30.6742C26.0243 30.6992 26.011 30.7125 26.0066 30.717L23.3501 33.3735C23.3264 33.3971 23.2881 33.3971 23.2646 33.3735ZM42.1484 27.9549V24.1517H44.1482V27.9549C43.8219 28.0043 43.4881 28.0302 43.1482 28.0302C42.8085 28.0302 42.4746 28.0043 42.1484 27.9549ZM41.209 22.3334V20.4546C41.209 20.4212 41.2361 20.3942 41.2695 20.3942H45.0271C45.0605 20.3942 45.0876 20.4212 45.0876 20.4546V22.3334C45.0876 22.3668 45.0605 22.3939 45.0271 22.3939H41.2695C41.2362 22.3939 41.209 22.3668 41.209 22.3334ZM36.5121 21.394C36.5121 17.7348 39.4892 14.7578 43.1483 14.7578C46.8076 14.7578 49.7845 17.7348 49.7845 21.394C49.7845 24.0695 48.1921 26.3787 45.906 27.4278V23.9241C46.4654 23.6137 46.8454 23.0173 46.8454 22.3334V20.4546C46.8454 19.452 46.0297 18.6364 45.0271 18.6364H41.2695C40.2668 18.6364 39.4512 19.452 39.4512 20.4546V22.3334C39.4512 23.0173 39.8311 23.6137 40.3906 23.9241V27.4278C38.1045 26.3787 36.5121 24.0695 36.5121 21.394ZM43.1482 71.2422C31.7193 71.2422 22.4212 61.9441 22.4212 50.5151C22.4212 39.0862 31.7193 29.788 43.1482 29.788C54.5772 29.788 63.8753 39.0862 63.8753 50.5151C63.8753 61.9441 54.5772 71.2422 43.1482 71.2422Z" fill="white"/>
<path d="M28.1786 50.5151C28.1786 51.0005 28.5721 51.394 29.0575 51.394H30.9362C31.4216 51.394 31.8152 51.0005 31.8152 50.5151C31.8152 50.0297 31.4216 49.6362 30.9362 49.6362H29.0575C28.5721 49.6362 28.1786 50.0297 28.1786 50.5151Z" fill="white"/>
<path d="M58.1181 50.5151C58.1181 50.0297 57.7246 49.6362 57.2392 49.6362H55.3605C54.8751 49.6362 54.4816 50.0297 54.4816 50.5151C54.4816 51.0005 54.8751 51.394 55.3605 51.394H57.2392C57.7246 51.394 58.1181 51.0005 58.1181 50.5151Z" fill="white"/>
<path d="M43.1482 61.8486C42.6628 61.8486 42.2693 62.2421 42.2693 62.7275V64.6063C42.2693 65.0917 42.6628 65.4852 43.1482 65.4852C43.6336 65.4852 44.0271 65.0917 44.0271 64.6063V62.7275C44.0271 62.2421 43.6337 61.8486 43.1482 61.8486Z" fill="white"/>
<path d="M53.8161 63.7107C50.7947 66.1595 47.0354 67.4836 43.1484 67.4834C42.8693 67.4834 42.5888 67.4766 42.3085 67.4628C38.0967 67.2562 34.1335 65.4988 31.149 62.5144C28.1646 59.5299 26.4071 55.5667 26.2005 51.3549C25.9955 47.1726 27.328 43.0857 29.9528 39.8473C30.2584 39.4702 30.2005 38.9167 29.8234 38.6111C29.4463 38.3056 28.8929 38.3635 28.5872 38.7405C25.6896 42.3155 24.2185 46.8259 24.4448 51.441C24.6728 56.0896 26.6123 60.4637 29.906 63.7574C33.1997 67.0511 37.5737 68.9905 42.2223 69.2186C42.5319 69.2338 42.8403 69.2413 43.1488 69.2413C47.4377 69.2412 51.5878 67.7795 54.923 65.0764C55.3001 64.7707 55.358 64.2173 55.0523 63.8402C54.7467 63.4629 54.1932 63.4052 53.8161 63.7107Z" fill="white"/>
<path d="M61.8516 49.5888C61.6236 44.9403 59.6841 40.5662 56.3904 37.2726C53.0968 33.9789 48.7227 32.0393 44.0742 31.8114C39.4588 31.5845 34.9485 33.0562 31.3735 35.9537C30.9964 36.2594 30.9385 36.8128 31.2441 37.1899C31.5499 37.567 32.1033 37.6249 32.4803 37.3193C35.7188 34.6945 39.8051 33.362 43.988 33.5671C48.1999 33.7737 52.163 35.531 55.1476 38.5156C58.132 41.5 59.8894 45.4633 60.096 49.6751C60.3011 53.8575 58.9686 57.9443 56.3438 61.1827C56.0382 61.5598 56.0961 62.1133 56.4732 62.4189C56.6361 62.5508 56.8317 62.6151 57.0261 62.6151C57.282 62.6151 57.5357 62.5037 57.7094 62.2895C60.6068 58.7145 62.078 54.2039 61.8516 49.5888Z" fill="white"/>
<path d="M43.1483 35.5454C42.6629 35.5454 42.2694 35.9389 42.2694 36.4243V38.4335C39.611 38.8563 37.5724 41.164 37.5724 43.9394C37.5724 46.19 38.9136 48.1322 40.8379 49.0121C40.5554 49.4449 40.3905 49.961 40.3905 50.5152C40.3905 51.7284 41.1785 52.7605 42.2693 53.1285V55.2122C42.2693 55.6976 42.6628 56.0911 43.1482 56.0911C43.6336 56.0911 44.0271 55.6976 44.0271 55.2122V53.1285C45.118 52.7606 45.9059 51.7285 45.9059 50.5152C45.9059 49.961 45.7411 49.4449 45.4585 49.0121C47.383 48.1322 48.7241 46.1901 48.7241 43.9394C48.7241 41.164 46.6855 38.8563 44.0271 38.4335V36.4243C44.0272 35.9389 43.6338 35.5454 43.1483 35.5454ZM39.3303 43.9394C39.3303 42.1367 40.5867 40.6228 42.2695 40.2247V47.6543C40.5867 47.2561 39.3303 45.7421 39.3303 43.9394ZM44.1482 50.5152C44.1482 51.0665 43.6997 51.515 43.1483 51.515C42.5969 51.515 42.1484 51.0664 42.1484 50.5152C42.1484 49.9639 42.597 49.5153 43.1483 49.5153C43.6998 49.5153 44.1482 49.9638 44.1482 50.5152ZM46.9665 43.9394C46.9665 45.7421 45.7101 47.2561 44.0273 47.6543V40.2247C45.7101 40.6228 46.9665 42.1367 46.9665 43.9394Z" fill="white"/>
<defs>
<linearGradient id="paint0_linear_880_310" x1="1.5" y1="1.5" x2="83.5" y2="83.5" gradientUnits="userSpaceOnUse">
<stop stop-color="#066DBC"/>
<stop offset="1" stop-color="#01387A"/>
</linearGradient>
</defs>
</svg>
