<svg width="86" height="86" viewBox="0 0 86 86" fill="none" xmlns="http://www.w3.org/2000/svg">
<rect width="86" height="86" rx="5" fill="url(#paint0_linear_880_324)"/>
<path d="M67.424 26.6362H61.1694C60.0329 26.6362 58.9638 26.1355 58.2363 25.2625L56.356 23.0062C55.2936 21.7312 53.7323 21 52.0726 21H33.9272C32.2675 21 30.7062 21.7312 29.6438 23.0062L27.7635 25.2625C27.036 26.1355 25.9669 26.6362 24.8304 26.6362H18.5759C15.5014 26.6362 13 29.1375 13 32.212V58.5149C13 61.5895 15.5014 64.0907 18.5759 64.0907H67.4241C70.4986 64.0907 73 61.5895 73 58.5149V32.212C72.9999 29.1375 70.4985 26.6362 67.424 26.6362ZM36.3637 22.7578H49.6361V23.7577C49.6361 24.3089 49.1875 24.7575 48.6363 24.7575H37.3637C36.8123 24.7575 36.3639 24.3089 36.3639 23.7577V22.7578H36.3637ZM71.2421 58.5149C71.2421 60.6202 69.5293 62.3329 67.424 62.3329H18.5759C16.4706 62.3329 14.7578 60.6202 14.7578 58.5149V32.212C14.7578 30.1067 16.4706 28.394 18.5759 28.394H24.8305C26.4902 28.394 28.0515 27.6628 29.114 26.3878L30.9942 24.1315C31.7217 23.2584 32.7908 22.7577 33.9273 22.7577H34.6061V23.7575C34.6061 25.2782 35.8432 26.5152 37.3637 26.5152H48.6363C50.1569 26.5152 51.394 25.278 51.394 23.7575V22.7577H52.0727C53.2092 22.7577 54.2783 23.2583 55.0058 24.1315L56.886 26.3877C57.9485 27.6627 59.5098 28.394 61.1695 28.394H67.4241C69.5294 28.394 71.2422 30.1067 71.2422 32.212V58.5149H71.2421Z" fill="white"/>
<path d="M43 29.4546C34.7457 29.4546 28.0303 36.17 28.0303 44.4243C28.0303 52.6786 34.7457 59.3941 43 59.3941C51.2543 59.3941 57.9697 52.6786 57.9697 44.4243C57.9697 36.17 51.2543 29.4546 43 29.4546ZM43 57.6363C35.7149 57.6363 29.7881 51.7094 29.7881 44.4243C29.7881 37.1393 35.7149 31.2124 43 31.2124C50.2851 31.2124 56.2119 37.1393 56.2119 44.4243C56.2119 51.7094 50.2851 57.6363 43 57.6363Z" fill="white"/>
<path d="M36.3146 37.7391C39.538 34.5158 44.6009 34.0533 48.3529 36.6392C48.7527 36.9148 49.3 36.814 49.5754 36.4144C49.8509 36.0146 49.7502 35.4674 49.3505 35.1919C44.8998 32.1244 38.8948 32.6729 35.0717 36.496C31.2486 40.3192 30.7001 46.3243 33.7675 50.7748C33.938 51.0222 34.2126 51.155 34.492 51.155C34.6639 51.155 34.8377 51.1046 34.99 50.9997C35.3897 50.7242 35.4904 50.177 35.2149 49.7772C32.6288 46.0252 33.0913 40.9624 36.3146 37.7391Z" fill="white"/>
<path d="M51.0099 37.8487C50.6101 38.1242 50.5095 38.6714 50.785 39.0712C53.3711 42.8233 52.9085 47.8861 49.6852 51.1095C46.4618 54.3328 41.3991 54.7952 37.6469 52.2093C37.2472 51.9338 36.6998 52.0345 36.4244 52.4342C36.1489 52.8339 36.2496 53.3811 36.6493 53.6567C38.5765 54.985 40.7948 55.6351 43.0017 55.6351C45.8909 55.6351 48.7605 54.52 50.9281 52.3525C54.7512 48.5294 55.2997 42.5243 52.2323 38.0737C51.9569 37.6739 51.4097 37.5732 51.0099 37.8487Z" fill="white"/>
<path d="M63.6665 32.2725C61.6279 32.2725 59.9695 33.9309 59.9695 35.9695C59.9695 38.0081 61.6279 39.6665 63.6665 39.6665C65.7051 39.6665 67.3635 38.0081 67.3635 35.9695C67.3635 33.9309 65.7051 32.2725 63.6665 32.2725ZM63.6665 37.9088C62.5972 37.9088 61.7273 37.0388 61.7273 35.9696C61.7273 34.9003 62.5972 34.0304 63.6665 34.0304C64.7358 34.0304 65.6057 34.9003 65.6057 35.9696C65.6057 37.0388 64.7358 37.9088 63.6665 37.9088Z" fill="white"/>
<path d="M38.3635 44.424C38.3635 46.9806 40.4435 49.0604 42.9999 49.0604C45.5564 49.0604 47.6363 46.9804 47.6363 44.424C47.6363 41.8676 45.5565 39.7876 42.9999 39.7876C40.4434 39.7876 38.3635 41.8674 38.3635 44.424ZM45.8785 44.424C45.8785 46.0113 44.5871 47.3026 42.9999 47.3026C41.4127 47.3026 40.1213 46.0112 40.1213 44.424C40.1213 42.8368 41.4127 41.5454 42.9999 41.5454C44.5871 41.5454 45.8785 42.8367 45.8785 44.424Z" fill="white"/>
<path d="M23.2727 32.2725C22.7873 32.2725 22.3938 32.6659 22.3938 33.1514V57.5754C22.3938 58.0609 22.7873 58.4543 23.2727 58.4543C23.7581 58.4543 24.1516 58.0609 24.1516 57.5754V33.1514C24.1516 32.6659 23.7581 32.2725 23.2727 32.2725Z" fill="white"/>
<defs>
<linearGradient id="paint0_linear_880_324" x1="1.5" y1="1.5" x2="83.5" y2="83.5" gradientUnits="userSpaceOnUse">
<stop stop-color="#12ABFE"/>
<stop offset="1" stop-color="#2974BC"/>
</linearGradient>
</defs>
</svg>
