<svg width="86" height="86" viewBox="0 0 86 86" fill="none" xmlns="http://www.w3.org/2000/svg">
<rect width="86" height="86" rx="5" fill="url(#paint0_linear_880_299)"/>
<path d="M50.1215 35.1354V32.6666C50.1215 31.6364 49.5533 30.737 48.7142 30.2636L58.4471 14.3372C58.6129 14.0659 58.6193 13.7262 58.4637 13.4489C58.3082 13.1717 58.015 13 57.6971 13H48.3031C47.9969 13 47.7128 13.1593 47.5532 13.4206L40.3184 25.2595L33.9008 14.7578H36.5377L39.699 19.9307C39.952 20.3448 40.4929 20.4755 40.9072 20.2224C41.3214 19.9693 41.452 19.4283 41.1989 19.0141L37.7805 13.4206C37.6208 13.1593 37.3367 13 37.0305 13H27.6365C27.3186 13 27.0255 13.1717 26.8699 13.4489C26.7143 13.7262 26.7207 14.0659 26.8865 14.3372L36.6194 30.2636C35.7804 30.737 35.2121 31.6364 35.2121 32.6666V35.1354C28.0537 38.0786 23 45.1263 23 53.3334C23.0001 64.1775 31.8226 73 42.6669 73C53.5112 73 62.3336 64.1775 62.3336 53.3334C62.3336 45.1264 57.2798 38.0786 50.1215 35.1354ZM46.871 29.909H44.234L53.493 14.7578H56.13L46.871 29.909ZM48.7961 14.7578H51.4331L42.1741 29.909H39.5371L48.7961 14.7578ZM31.8407 14.7578L39.2885 26.945L37.97 29.1025L29.2038 14.7578H31.8407ZM36.97 32.6666C36.97 32.1155 37.4183 31.6671 37.9694 31.6668H37.9708C37.9714 31.6668 37.972 31.6667 37.9726 31.6667H47.3613C47.3619 31.6667 47.3625 31.6668 47.363 31.6668H47.3645C47.9156 31.667 48.3638 32.1155 48.3638 32.6666V34.5089C46.5597 33.9619 44.6473 33.6665 42.667 33.6665C40.6866 33.6665 38.7743 33.9619 36.9702 34.5089V32.6666H36.97ZM42.6669 71.2422C32.7918 71.2422 24.7579 63.2083 24.7579 53.3334C24.7579 43.4583 32.7918 35.4244 42.6669 35.4244C52.5419 35.4244 60.5758 43.4583 60.5758 53.3334C60.5758 63.2083 52.5419 71.2422 42.6669 71.2422Z" fill="white"/>
<path d="M31.8483 61.5731C31.2428 61.2075 30.6711 60.8623 30.4091 60.4096C30.1538 59.9684 30.1392 59.3054 30.1237 58.6036C30.1102 57.9946 30.0964 57.3647 29.9311 56.747C29.7724 56.1528 29.475 55.6146 29.1877 55.0942C28.842 54.4684 28.5155 53.8773 28.5155 53.3333C28.5155 52.7891 28.842 52.198 29.1877 51.5722C29.4752 51.0519 29.7724 50.5138 29.9311 49.9195C30.0963 49.3019 30.1102 48.6719 30.1237 48.0627C30.1392 47.3609 30.1538 46.6979 30.4093 46.2566C30.6712 45.8039 31.2431 45.4586 31.8486 45.0929C32.3659 44.7805 32.9009 44.4576 33.3462 44.0121C33.7916 43.5668 34.1147 43.0319 34.4272 42.5145C34.7928 41.9091 35.138 41.3372 35.5906 41.0754C36.0319 40.8201 36.6947 40.8055 37.3966 40.7899C38.0057 40.7766 38.6356 40.7626 39.2533 40.5975C39.8474 40.4387 40.3856 40.1414 40.906 39.8541C41.5318 39.5084 42.1229 39.1819 42.667 39.1819C43.2111 39.1819 43.8023 39.5084 44.4281 39.8541C44.9485 40.1415 45.4865 40.4387 46.0808 40.5976C46.6984 40.7628 47.3284 40.7767 47.9376 40.7902C48.6395 40.8058 49.3024 40.8204 49.7438 41.0758C50.1638 41.3188 50.7016 41.1754 50.9447 40.7553C51.1878 40.3351 51.0443 39.7974 50.6241 39.5543C49.7923 39.0731 48.8276 39.0517 47.9766 39.0329C47.448 39.0212 46.9486 39.0102 46.5349 38.8996C46.1484 38.7962 45.7257 38.5628 45.2781 38.3156C44.5217 37.8979 43.6645 37.4243 42.6672 37.4243C41.6699 37.4243 40.8127 37.8979 40.0563 38.3156C39.6088 38.5628 39.1861 38.7963 38.7997 38.8996C38.386 39.0102 37.8867 39.0212 37.3581 39.0328C36.507 39.0516 35.5423 39.0729 34.7106 39.5541C33.8671 40.0422 33.3654 40.8729 32.9227 41.606C32.6528 42.053 32.3978 42.4753 32.1037 42.7695C31.8095 43.0636 31.3873 43.3186 30.9402 43.5885C30.2071 44.0311 29.3763 44.5329 28.8882 45.3764C28.4069 46.2082 28.3856 47.1729 28.3667 48.024C28.355 48.5527 28.344 49.052 28.2333 49.4658C28.13 49.8523 27.8965 50.275 27.6494 50.7225C27.2316 51.479 26.7581 52.3362 26.7581 53.3336C26.7581 54.3307 27.2316 55.1879 27.6493 55.9443C27.8964 56.3918 28.13 56.8145 28.2332 57.2011C28.3438 57.6148 28.3549 58.1141 28.3665 58.6426C28.3852 59.4938 28.4065 60.4585 28.8878 61.2901C29.3759 62.1337 30.2068 62.6354 30.9398 63.0781C31.3867 63.3479 31.809 63.6029 32.1031 63.8971C32.2747 64.0687 32.4997 64.1546 32.7245 64.1546C32.9494 64.1546 33.1744 64.0688 33.346 63.8972C33.6892 63.554 33.6892 62.9974 33.346 62.6542C32.9006 62.2087 32.3656 61.8856 31.8483 61.5731Z" fill="white"/>
<path d="M57.685 50.7225C57.4379 50.2749 57.2043 49.8522 57.1011 49.4657C56.9904 49.0521 56.9794 48.5527 56.9678 48.0241C56.9491 47.173 56.9277 46.2083 56.4464 45.3766C55.9584 44.5331 55.1275 44.0313 54.3945 43.5887C53.9475 43.3188 53.5253 43.0638 53.2312 42.7696C52.8879 42.4264 52.3314 42.4264 51.9883 42.7696C51.645 43.1129 51.645 43.6694 51.9883 44.0125C52.4336 44.4578 52.9686 44.7809 53.4859 45.0934C54.0914 45.459 54.6632 45.8042 54.9251 46.2569C55.1805 46.6982 55.1951 47.361 55.2106 48.0629C55.2241 48.672 55.2379 49.3019 55.4031 49.9196C55.5619 50.5139 55.8592 51.052 56.1466 51.5724C56.4923 52.1982 56.8187 52.7893 56.8187 53.3333C56.8187 53.8773 56.4923 54.4685 56.1466 55.0942C55.8591 55.6146 55.5619 56.1528 55.403 56.7471C55.2379 57.3648 55.2239 57.9946 55.2105 58.6039C55.195 59.3057 55.1803 59.9687 54.9249 60.41C54.663 60.8626 54.0911 61.2079 53.4856 61.5735C52.9682 61.886 52.4332 62.2091 51.9879 62.6544C51.5425 63.0997 51.2194 63.6348 50.907 64.1521C50.5414 64.7576 50.1961 65.3294 49.7436 65.5912C49.3023 65.8466 48.6394 65.8612 47.9376 65.8767C47.3284 65.8901 46.6986 65.904 46.0809 66.0692C45.4866 66.228 44.9485 66.5253 44.4282 66.8126C43.8024 67.1583 43.2113 67.4848 42.6672 67.4848C42.1231 67.4848 41.5319 67.1583 40.9061 66.8126C40.3858 66.5252 39.8477 66.228 39.2534 66.0692C38.6357 65.9041 38.0058 65.8901 37.3966 65.8767C36.6947 65.8612 36.0318 65.8466 35.5903 65.5912C35.1703 65.3482 34.6326 65.4916 34.3894 65.9118C34.1464 66.3319 34.2898 66.8696 34.71 67.1128C35.5418 67.5941 36.5065 67.6154 37.3577 67.6341C37.8863 67.6459 38.3856 67.6569 38.7994 67.7675C39.1859 67.8707 39.6086 68.1043 40.0561 68.3514C40.8126 68.7692 41.6698 69.2428 42.6671 69.2428C43.6643 69.2428 44.5216 68.7692 45.2779 68.3516C45.7254 68.1044 46.1481 67.8709 46.5346 67.7676C46.9483 67.6571 47.4476 67.646 47.9761 67.6344C48.8273 67.6155 49.7918 67.5943 50.6236 67.1131C51.4671 66.625 51.9688 65.7943 52.4116 65.0612C52.6814 64.6141 52.9364 64.1919 53.2306 63.8977C53.5247 63.6036 53.947 63.3487 54.3939 63.0787C55.127 62.6361 55.958 62.1343 56.4461 61.2908C56.9274 60.459 56.9487 59.4943 56.9676 58.6432C56.9793 58.1145 56.9903 57.6153 57.1009 57.2015C57.2043 56.815 57.4377 56.3922 57.6849 55.9448C58.1027 55.1884 58.5762 54.331 58.5762 53.3339C58.5762 52.3367 58.1028 51.4789 57.685 50.7225Z" fill="white"/>
<path d="M53.1264 50.2883C52.9354 49.7003 52.3915 49.3053 51.7733 49.3053H45.8502L44.0199 43.672C43.8288 43.084 43.285 42.689 42.6668 42.689C42.0486 42.689 41.5048 43.084 41.3138 43.672L39.4834 49.3053H33.5603C32.942 49.3053 32.3983 49.7003 32.2072 50.2883C32.0162 50.8764 32.224 51.5156 32.7242 51.8789L37.5161 55.3605L35.6857 60.9937C35.4947 61.5817 35.7024 62.2208 36.2025 62.5842C36.4526 62.766 36.7457 62.8568 37.0388 62.8568C37.3319 62.8568 37.6249 62.766 37.875 62.5842L42.6668 59.1028L47.4587 62.5844C47.959 62.9478 48.6311 62.9479 49.1312 62.5844C49.6315 62.221 49.8392 61.5817 49.648 60.9938L47.8177 55.3606L52.6096 51.879C53.1097 51.5156 53.3174 50.8764 53.1264 50.2883ZM46.2679 54.3137C45.9598 54.5376 45.8309 54.9342 45.9485 55.2965L47.6575 60.5561L43.1834 57.3055C42.8754 57.0817 42.4582 57.0817 42.1502 57.3055L37.6761 60.5561L39.3851 55.2965C39.5028 54.9344 39.3738 54.5376 39.0658 54.3137L34.5917 51.0632H40.122C40.5027 51.0632 40.8402 50.818 40.9579 50.4558L42.6668 45.1962L44.3758 50.4558C44.4934 50.8179 44.8309 51.0632 45.2117 51.0632H50.742L46.2679 54.3137Z" fill="white"/>
<defs>
<linearGradient id="paint0_linear_880_299" x1="1.5" y1="1.5" x2="83.5" y2="83.5" gradientUnits="userSpaceOnUse">
<stop stop-color="#FFAD00"/>
<stop offset="1" stop-color="#FF7200"/>
</linearGradient>
</defs>
</svg>
