<?xml version="1.0" encoding="UTF-8"?>
<svg xmlns="http://www.w3.org/2000/svg" xmlns:xlink="http://www.w3.org/1999/xlink" viewBox="0 0 128 128" width="128px" height="128px">
<g id="surface1260712">
<path style=" stroke:none;fill-rule:nonzero;fill:rgb(100%,100%,100%);fill-opacity:1;" d="M 99.554688 85.332031 C 103.484375 85.332031 106.667969 88.515625 106.667969 92.445312 C 106.667969 96.371094 103.484375 99.554688 99.554688 99.554688 C 97.417969 99.554688 30.582031 99.554688 28.445312 99.554688 C 24.515625 99.554688 21.332031 96.371094 21.332031 92.445312 C 21.332031 88.515625 24.515625 85.332031 28.445312 85.332031 C 30.582031 85.332031 97.417969 85.332031 99.554688 85.332031 Z M 99.554688 56.890625 C 103.484375 56.890625 106.667969 60.074219 106.667969 64 C 106.667969 67.925781 103.484375 71.109375 99.554688 71.109375 C 97.417969 71.109375 30.582031 71.109375 28.445312 71.109375 C 24.515625 71.109375 21.332031 67.925781 21.332031 64 C 21.332031 60.074219 24.515625 56.890625 28.445312 56.890625 C 30.582031 56.890625 97.417969 56.890625 99.554688 56.890625 Z M 99.554688 28.445312 C 103.484375 28.445312 106.667969 31.628906 106.667969 35.554688 C 106.667969 39.484375 103.484375 42.667969 99.554688 42.667969 C 97.417969 42.667969 30.582031 42.667969 28.445312 42.667969 C 24.515625 42.667969 21.332031 39.484375 21.332031 35.554688 C 21.332031 31.628906 24.515625 28.445312 28.445312 28.445312 C 30.582031 28.445312 97.417969 28.445312 99.554688 28.445312 Z M 99.554688 28.445312 "/>
</g>
</svg>
