<svg width="48" height="48" viewBox="0 0 48 48" fill="none" xmlns="http://www.w3.org/2000/svg">
<path d="M46.975 0.00631697C37.2146 -0.168683 26.0833 4.9334 19.0375 12.848C12.3042 12.9751 5.74793 15.7355 0.920853 20.5626C0.639603 20.8397 0.539603 21.2542 0.66252 21.6292C0.78752 22.0063 1.11252 22.2792 1.50419 22.3355L9.53335 23.4855L8.54168 24.5959C8.17293 25.0084 8.19168 25.6355 8.58335 26.0272L21.9729 39.4167C22.175 39.6188 22.4417 39.7209 22.7104 39.7209C22.9583 39.7209 23.2063 39.6334 23.4042 39.4563L24.5146 38.4646L25.6646 46.4938C25.7208 46.8855 26.0292 47.173 26.4021 47.298C26.4979 47.3292 26.5979 47.3438 26.7 47.3438C26.9958 47.3438 27.2979 47.2146 27.5063 47.0084C32.2667 42.248 35.0271 35.6917 35.1542 28.9584C43.0771 21.898 48.2208 10.7709 47.9937 1.02298C47.9792 0.468817 47.5312 0.0209003 46.975 0.00631697ZM37.375 17.9897C36.3604 19.0042 35.0271 19.5126 33.6917 19.5126C32.3563 19.5126 31.0229 19.0042 30.0083 17.9897C27.9792 15.9584 27.9792 12.6542 30.0083 10.623C32.0396 8.59173 35.3438 8.59173 37.375 10.623C39.4062 12.6542 39.4062 15.9605 37.375 17.9897Z" fill="white"/>
</svg>
