<svg width="80" height="80" viewBox="0 0 80 80" fill="none" xmlns="http://www.w3.org/2000/svg">
<path d="M40.8333 69.895H30.1792C29.5321 69.895 29.0074 70.4195 29.0074 71.0669C29.0074 71.7142 29.5321 72.2387 30.1792 72.2387H40.8333C42.3222 72.2387 43.5335 73.4537 43.5335 74.9473C43.5335 76.441 42.3222 77.656 40.8333 77.656H5.04391C3.555 77.656 2.34375 76.441 2.34375 74.9473C2.34375 73.4537 3.555 72.2387 5.04391 72.2387H6.08079C6.45672 72.2387 6.80985 72.0584 7.03016 71.7539L9.06673 68.9399L11.1031 71.7539C11.3234 72.0583 11.6766 72.2387 12.0525 72.2387H24.7608C25.408 72.2387 25.9327 71.7142 25.9327 71.0669C25.9327 70.4195 25.408 69.895 24.7608 69.895H12.6508L10.0159 66.2541C9.79563 65.9498 9.44251 65.7693 9.06657 65.7693C8.69063 65.7693 8.33751 65.9496 8.11719 66.2541L5.48219 69.895H5.04375C2.26266 69.895 0 72.1616 0 74.9473C0 77.7332 2.26266 79.9998 5.04391 79.9998H40.8335C43.6147 79.9998 45.8774 77.7332 45.8774 74.9473C45.8772 72.1616 43.6146 69.895 40.8333 69.895Z" fill="#CB0F4C"/>
<path d="M74.9561 0H48.5417C45.7605 0 43.4978 2.2665 43.4978 5.05236C43.4978 7.83806 45.7605 10.1046 48.5417 10.1046H52.9502C53.5973 10.1046 54.122 9.58004 54.122 8.93272C54.122 8.28539 53.5973 7.76088 52.9502 7.76088H48.5417C47.0528 7.76088 45.8416 6.54591 45.8416 5.05236C45.8416 3.55881 47.0528 2.34368 48.5417 2.34368H74.9562C76.445 2.34368 77.6562 3.55865 77.6562 5.0522C77.6562 6.54575 76.445 7.76088 74.9561 7.76088H73.9192C73.5433 7.76088 73.1902 7.94118 72.9698 8.24571L70.9333 11.0597L68.8969 8.24571C68.6766 7.94134 68.3234 7.76088 67.9475 7.76088H58.3687C57.7216 7.76088 57.1969 8.28539 57.1969 8.93272C57.1969 9.58004 57.7216 10.1046 58.3687 10.1046H67.3491L69.9839 13.7454C70.2042 14.0498 70.5573 14.2302 70.9333 14.2302C71.3092 14.2302 71.6623 14.0499 71.8827 13.7454L74.5177 10.1046H74.9561C77.7373 10.1046 80 7.83806 80 5.0522C80 2.2665 77.7373 0 74.9561 0V0Z" fill="#CB0F4C"/>
<path d="M72.5497 65.9707H55.0192C54.372 65.9707 53.8474 66.4951 53.8474 67.1423C53.8474 67.7895 54.372 68.314 55.0192 68.314H72.5497C73.1969 68.314 73.7216 67.7895 73.7216 67.1423C73.7216 66.4951 73.1969 65.9707 72.5497 65.9707Z" fill="#CB0F4C"/>
<path d="M72.5497 71.4395H64.4034C63.7563 71.4395 63.2316 71.9639 63.2316 72.6112C63.2316 73.2585 63.7563 73.783 64.4034 73.783H72.5497C73.1969 73.783 73.7216 73.2585 73.7216 72.6112C73.7216 71.9639 73.1969 71.4395 72.5497 71.4395Z" fill="#CB0F4C"/>
<path d="M7.55731 14.0625H22.9385C23.5857 14.0625 24.1104 13.538 24.1104 12.8906C24.1104 12.2433 23.5857 11.7188 22.9385 11.7188H7.55731C6.91012 11.7188 6.38544 12.2433 6.38544 12.8906C6.38544 13.538 6.91012 14.0625 7.55731 14.0625Z" fill="#CB0F4C"/>
<path d="M7.55731 8.59351H15.7034C16.3506 8.59351 16.8753 8.06897 16.8753 7.42163C16.8753 6.77429 16.3506 6.24976 15.7034 6.24976H7.55731C6.91013 6.24976 6.38544 6.77429 6.38544 7.42163C6.38544 8.06897 6.91013 8.59351 7.55731 8.59351Z" fill="#CB0F4C"/>
<path d="M70.8228 45.4063C71.47 45.4063 71.9947 44.8818 71.9947 44.2344V27.093C71.9947 22.7239 68.4388 19.1694 64.068 19.1694H16.0073C11.6366 19.1694 8.08063 22.7239 8.08063 27.093V52.907C8.08063 57.2761 11.6366 60.8306 16.0073 60.8306H64.068C68.4388 60.8306 71.9947 57.2761 71.9947 52.907V49.6835C71.9947 49.0361 71.47 48.5116 70.8228 48.5116C70.1756 48.5116 69.6509 49.0361 69.6509 49.6835V52.907C69.6509 55.9837 67.1464 58.4868 64.068 58.4868H16.0073C12.9289 58.4868 10.4244 55.9837 10.4244 52.907V27.093C10.4244 24.0163 12.9289 21.5132 16.0073 21.5132H64.068C67.1464 21.5132 69.6509 24.0163 69.6509 27.093V44.2344C69.6509 44.8816 70.1756 45.4063 70.8228 45.4063Z" fill="#CB0F4C"/>
<path d="M26.9649 24.9973C26.9649 24.35 26.4402 23.8254 25.793 23.8254H16.3647C14.3208 23.8254 12.6581 25.49 12.6581 27.5362V52.5272C12.6581 54.5733 14.321 56.2378 16.3647 56.2378H63.6883C65.7322 56.2378 67.3948 54.5733 67.3948 52.5272V27.5362C67.3948 25.49 65.732 23.8254 63.6883 23.8254H31.1403C30.4931 23.8254 29.9684 24.35 29.9684 24.9973C29.9684 25.6447 30.4931 26.1692 31.1403 26.1692H62.4498L41.3247 40.3706C40.5714 40.877 39.5973 40.8781 38.8428 40.3734L17.6136 26.1693H25.793C26.4402 26.1692 26.9649 25.6447 26.9649 24.9973ZM28.2575 36.1108L15.0019 51.6784V27.5362C15.0019 27.4417 15.0116 27.3493 15.0299 27.2603L28.2575 36.1108ZM65.0237 27.2631C65.0417 27.3514 65.0511 27.4426 65.0511 27.5362V51.525L51.903 36.0836L65.0237 27.2631ZM40.0817 43.0965C40.9699 43.0965 41.858 42.8362 42.6322 42.3158L49.9452 37.3997L63.9656 53.8656C63.8759 53.8844 63.7831 53.8942 63.6881 53.8942H16.3647C16.3095 53.8942 16.2553 53.8908 16.2019 53.8844L30.2186 37.4228L37.5395 42.3212C38.312 42.8383 39.1969 43.0965 40.0817 43.0965Z" fill="#CB0F4C"/>
</svg>
