<svg width="632" height="560" viewBox="0 0 632 560" fill="none" xmlns="http://www.w3.org/2000/svg">
<path opacity="0.1" d="M282.719 216.66C258.055 208.666 231.977 201.965 205.325 202.655C166.144 203.674 128.471 221.96 109.891 248.986C94.1852 271.888 92.0888 298.805 85.233 324.271C76.7862 355.646 60.753 385.421 43.6408 414.539C34.4497 430.179 24.7532 446.147 23.1554 463.332C20.9634 487.192 35.3988 511.044 58.1581 527.033C80.9174 543.021 111.202 551.542 141.629 553.532C157.82 554.585 174.741 553.771 189.156 547.931C204.404 541.777 215.554 530.513 230.864 524.427C245.053 518.792 261.592 518.067 277.509 518.895C298.123 519.939 318.539 523.442 338.324 529.33C360.509 535.977 381.124 545.545 403.262 552.287C425.4 559.03 450.147 562.846 472.831 557.423C494.129 552.335 511.023 539.793 526.257 527.087C550.807 506.664 573.634 484.249 594.507 460.07C608.267 444.075 621.084 427.184 627.229 408.494C638.968 372.756 623.242 332.293 588.055 307.681C558.904 287.282 519.688 278.275 481.285 272.805C446.261 267.765 405.741 267.265 373.552 254.43C342.851 242.154 314.922 227.096 282.719 216.66Z" fill="#6C63FF"/>
<path opacity="0.1" d="M597.116 338.447C605.831 338.447 612.897 337.477 612.897 336.279C612.897 335.082 605.831 334.112 597.116 334.112C588.401 334.112 581.336 335.082 581.336 336.279C581.336 337.477 588.401 338.447 597.116 338.447Z" fill="#6C63FF"/>
<path opacity="0.1" d="M536.664 344.588C545.379 344.588 552.444 343.617 552.444 342.42C552.444 341.223 545.379 340.252 536.664 340.252C527.948 340.252 520.883 341.223 520.883 342.42C520.883 343.617 527.948 344.588 536.664 344.588Z" fill="#6C63FF"/>
<path opacity="0.1" d="M465.456 336.279C474.172 336.279 481.237 335.308 481.237 334.111C481.237 332.914 474.172 331.944 465.456 331.944C456.741 331.944 449.676 332.914 449.676 334.111C449.676 335.308 456.741 336.279 465.456 336.279Z" fill="#6C63FF"/>
<path opacity="0.1" d="M560.857 361.446C567.053 361.446 572.076 360.754 572.076 359.9C572.076 359.047 567.053 358.354 560.857 358.354C554.661 358.354 549.638 359.047 549.638 359.9C549.638 360.754 554.661 361.446 560.857 361.446Z" fill="#6C63FF"/>
<path opacity="0.1" d="M498.117 359.9C504.313 359.9 509.336 359.208 509.336 358.354C509.336 357.501 504.313 356.809 498.117 356.809C491.921 356.809 486.898 357.501 486.898 358.354C486.898 359.208 491.921 359.9 498.117 359.9Z" fill="#6C63FF"/>
<path d="M536.322 341.928C536.322 341.928 558.46 269.262 532.86 240.158C513.741 218.384 491.971 221.01 482.241 223.684C479.722 224.355 477.379 225.567 475.375 227.236C473.37 228.904 471.752 230.989 470.632 233.347C467.218 240.698 467.846 252.631 491.869 266.561C532.095 289.887 534.602 321.885 534.602 321.885L536.322 341.928Z" fill="#6C63FF"/>
<path d="M485.703 233.99C485.703 233.99 550.956 254.423 536.322 341.929" stroke="#565987" stroke-miterlimit="10"/>
<path d="M523.806 241.313C523.806 241.313 514.819 247.379 517.66 256.488" stroke="#565987" stroke-miterlimit="10"/>
<path d="M492.251 246.708C492.251 246.708 497.714 241.115 504.427 244.199" stroke="#565987" stroke-miterlimit="10"/>
<path d="M518.042 274.849C518.042 274.849 527.684 269.953 530.177 276.087" stroke="#565987" stroke-miterlimit="10"/>
<path d="M541.908 285.066C541.908 285.066 534.663 284.491 534.533 287.958" stroke="#565987" stroke-miterlimit="10"/>
<path d="M537.217 342.509C537.217 342.509 511.269 289.695 504.174 290.851C500.76 291.398 499.23 294.735 498.527 298.079C497.653 302.407 498.147 306.901 499.94 310.935C503.621 319.388 513.502 335.438 537.217 342.509Z" fill="#6C63FF"/>
<path d="M504.365 300.876C504.365 300.876 531.577 340.389 536.834 342.125" stroke="#565987" stroke-miterlimit="10"/>
<path d="M501.866 307.044H508.216" stroke="#565987" stroke-miterlimit="10"/>
<path d="M509.473 321.501L519.429 321.925" stroke="#565987" stroke-miterlimit="10"/>
<path d="M515.529 309.938L514.451 315.128" stroke="#565987" stroke-miterlimit="10"/>
<path d="M526.114 325.742L525.923 330.461" stroke="#565987" stroke-miterlimit="10"/>
<path d="M536.452 342.509C536.452 342.509 562.4 289.695 569.495 290.851C572.909 291.398 574.439 294.735 575.142 298.079C576.016 302.407 575.522 306.901 573.729 310.935C570.048 319.388 560.167 335.438 536.452 342.509Z" fill="#6C63FF"/>
<path d="M569.304 300.876C569.304 300.876 542.092 340.389 536.834 342.125" stroke="#565987" stroke-miterlimit="10"/>
<path d="M571.803 307.044H565.453" stroke="#565987" stroke-miterlimit="10"/>
<path d="M564.196 321.501L554.24 321.925" stroke="#565987" stroke-miterlimit="10"/>
<path d="M558.139 309.938L559.218 315.128" stroke="#565987" stroke-miterlimit="10"/>
<path d="M547.548 325.742L547.746 330.461" stroke="#565987" stroke-miterlimit="10"/>
<path d="M491.937 354.847C491.233 354.269 490.719 353.492 490.462 352.617C490.348 352.177 490.388 351.711 490.576 351.296C490.764 350.882 491.087 350.544 491.493 350.34C492.442 349.978 493.453 350.634 494.225 351.304C494.996 351.975 495.87 352.72 496.874 352.583C496.359 352.114 495.973 351.519 495.755 350.856C495.538 350.193 495.495 349.485 495.631 348.801C495.673 348.517 495.791 348.25 495.973 348.028C496.499 347.468 497.455 347.714 498.083 348.151C500.084 349.567 500.643 352.289 500.657 354.738C500.755 353.828 500.755 352.911 500.657 352.002C500.618 351.549 500.69 351.093 500.868 350.675C501.045 350.256 501.322 349.888 501.675 349.601C502.149 349.341 502.684 349.214 503.225 349.232C503.671 349.168 504.127 349.199 504.561 349.323C504.995 349.447 505.398 349.66 505.744 349.95C506.502 350.771 506.304 352.146 505.642 353.048C504.897 353.875 504.017 354.569 503.04 355.1C502.292 355.543 501.655 356.151 501.176 356.878C501.122 356.979 501.077 357.085 501.039 357.193H495.399C494.145 356.57 492.981 355.781 491.937 354.847Z" fill="#F86D70"/>
<path d="M590.725 333.571C590.018 332.995 589.503 332.218 589.25 331.342C589.136 330.902 589.177 330.437 589.364 330.024C589.552 329.611 589.875 329.274 590.281 329.071C591.23 328.709 592.241 329.365 593.012 330.029C593.784 330.692 594.665 331.451 595.668 331.307C595.151 330.84 594.763 330.245 594.544 329.582C594.325 328.919 594.282 328.21 594.419 327.526C594.46 327.243 594.581 326.977 594.767 326.76C595.293 326.199 596.242 326.438 596.87 326.883C598.871 328.292 599.431 330.986 599.445 333.468C599.545 332.559 599.545 331.642 599.445 330.733C599.406 330.28 599.478 329.824 599.655 329.406C599.833 328.988 600.11 328.619 600.462 328.333C600.939 328.079 601.473 327.954 602.012 327.97C602.457 327.9 602.911 327.925 603.345 328.043C603.779 328.161 604.184 328.369 604.532 328.654C605.297 329.468 605.099 330.842 604.429 331.745C603.689 332.588 602.809 333.295 601.828 333.837C601.08 334.281 600.442 334.889 599.964 335.615C599.907 335.715 599.862 335.821 599.827 335.93H594.187C592.933 335.301 591.769 334.508 590.725 333.571Z" fill="#F86D70"/>
<path d="M557.798 354.847C557.094 354.269 556.58 353.492 556.323 352.617C556.209 352.177 556.249 351.711 556.437 351.296C556.624 350.882 556.948 350.544 557.354 350.34C558.303 349.978 559.314 350.634 560.085 351.304C560.857 351.975 561.731 352.72 562.735 352.583C562.219 352.114 561.832 351.52 561.613 350.857C561.394 350.194 561.35 349.486 561.485 348.801C561.533 348.518 561.653 348.251 561.833 348.028C562.359 347.468 563.315 347.714 563.943 348.151C565.944 349.567 566.504 352.289 566.518 354.738C566.627 353.83 566.638 352.912 566.552 352.002C566.513 351.549 566.585 351.093 566.763 350.675C566.94 350.256 567.217 349.888 567.569 349.601C568.044 349.341 568.579 349.214 569.119 349.232C569.566 349.168 570.021 349.199 570.455 349.323C570.889 349.447 571.293 349.66 571.639 349.95C572.397 350.771 572.199 352.146 571.537 353.048C570.792 353.875 569.912 354.569 568.935 355.1C568.187 355.543 567.549 356.151 567.071 356.878C567.017 356.979 566.971 357.085 566.934 357.193H561.294C560.028 356.573 558.852 355.784 557.798 354.847Z" fill="#6C63FF"/>
<path d="M464.432 311.846C464.432 311.846 462.315 314.615 465.409 318.794C468.502 322.972 471.042 326.507 470.018 329.113C470.018 329.113 465.354 321.351 461.557 321.242C457.761 321.132 460.253 316.517 464.432 311.846Z" fill="#6C63FF"/>
<path opacity="0.1" d="M464.432 311.846C464.245 312.113 464.098 312.405 463.995 312.714C460.294 317.071 458.321 321.14 461.878 321.243C465.197 321.338 469.178 327.274 470.127 328.765C470.127 328.881 470.059 328.998 470.018 329.107C470.018 329.107 465.354 321.345 461.557 321.236C457.761 321.126 460.253 316.517 464.432 311.846Z" fill="black"/>
<path d="M460.499 315.374C460.499 316.352 460.608 317.139 460.745 317.139C460.881 317.139 460.984 316.352 460.984 315.374C460.984 314.396 460.847 314.861 460.717 314.861C460.587 314.861 460.499 314.403 460.499 315.374Z" fill="#FFD037"/>
<path d="M459.147 316.537C460 317.009 460.752 317.29 460.813 317.173C460.874 317.057 460.239 316.578 459.386 316.113C458.532 315.648 458.867 315.983 458.799 316.113C458.73 316.243 458.293 316.072 459.147 316.537Z" fill="#FFD037"/>
<path d="M475.597 311.846C475.597 311.846 477.713 314.615 474.62 318.794C471.527 322.972 468.987 326.507 470.018 329.113C470.018 329.113 474.675 321.351 478.471 321.242C482.268 321.132 479.776 316.517 475.597 311.846Z" fill="#6C63FF"/>
<path opacity="0.1" d="M475.597 311.846C475.784 312.113 475.931 312.405 476.034 312.714C479.735 317.071 481.708 321.14 478.151 321.243C474.832 321.338 470.851 327.274 469.902 328.765C469.933 328.882 469.972 328.996 470.018 329.107C470.018 329.107 474.675 321.345 478.471 321.236C482.268 321.126 479.776 316.517 475.597 311.846Z" fill="black"/>
<path d="M479.53 315.374C479.53 316.352 479.421 317.139 479.284 317.139C479.147 317.139 479.045 316.352 479.045 315.374C479.045 314.396 479.182 314.861 479.311 314.861C479.441 314.861 479.53 314.403 479.53 315.374Z" fill="#FFD037"/>
<path d="M480.882 316.537C480.028 317.009 479.277 317.29 479.216 317.173C479.154 317.057 479.789 316.578 480.643 316.113C481.496 315.648 481.162 315.983 481.23 316.113C481.298 316.243 481.735 316.072 480.882 316.537Z" fill="#FFD037"/>
<path d="M478.854 328.75C478.854 328.75 472.947 328.573 471.165 327.301C469.383 326.029 462.069 324.51 461.605 326.548C461.141 328.586 452.728 336.683 459.393 336.738C466.057 336.793 474.907 335.699 476.682 334.611C478.458 333.524 478.854 328.75 478.854 328.75Z" fill="#A8A8A8"/>
<path opacity="0.2" d="M459.297 336.025C465.968 336.08 474.804 334.986 476.587 333.899C477.952 333.078 478.478 330.111 478.635 328.743H478.826C478.826 328.743 478.458 333.53 476.675 334.603C474.893 335.677 466.064 336.784 459.386 336.73C457.46 336.73 456.798 336.046 456.832 335.013C457.125 335.636 457.863 336.019 459.297 336.025Z" fill="black"/>
<path opacity="0.1" d="M88.0806 56.1738C96.2378 56.1738 102.851 49.5515 102.851 41.3824C102.851 33.2134 96.2378 26.5911 88.0806 26.5911C79.9233 26.5911 73.3105 33.2134 73.3105 41.3824C73.3105 49.5515 79.9233 56.1738 88.0806 56.1738Z" fill="#6C63FF"/>
<path opacity="0.1" d="M343.541 32.8267C351.698 32.8267 358.311 26.2043 358.311 18.0353C358.311 9.86622 351.698 3.2439 343.541 3.2439C335.383 3.2439 328.771 9.86622 328.771 18.0353C328.771 26.2043 335.383 32.8267 343.541 32.8267Z" fill="#6C63FF"/>
<path opacity="0.1" d="M577.86 91.2632C586.017 91.2632 592.63 84.6406 592.63 76.4713C592.63 68.302 586.017 61.6794 577.86 61.6794C569.703 61.6794 563.09 68.302 563.09 76.4713C563.09 84.6406 569.703 91.2632 577.86 91.2632Z" fill="#6C63FF"/>
<path opacity="0.1" d="M24.7532 201.801C38.4241 201.801 49.5065 190.702 49.5065 177.011C49.5065 163.32 38.4241 152.221 24.7532 152.221C11.0824 152.221 0 163.32 0 177.011C0 190.702 11.0824 201.801 24.7532 201.801Z" fill="#6C63FF"/>
<path opacity="0.1" d="M48.4822 324.21C62.153 324.21 73.2354 313.111 73.2354 299.42C73.2354 285.729 62.153 274.63 48.4822 274.63C34.8113 274.63 23.7289 285.729 23.7289 299.42C23.7289 313.111 34.8113 324.21 48.4822 324.21Z" fill="#6C63FF"/>
<path opacity="0.1" d="M512.081 216.237C525.752 216.237 536.834 205.138 536.834 191.447C536.834 177.756 525.752 166.657 512.081 166.657C498.41 166.657 487.328 177.756 487.328 191.447C487.328 205.138 498.41 216.237 512.081 216.237Z" fill="#6C63FF"/>
<path d="M307.391 237.866C306.517 237.948 305.629 237.907 304.762 238.044C303.306 238.334 301.917 238.893 300.665 239.692C294.451 243.235 288.585 248.104 286.011 254.778C285.799 255.188 285.732 255.658 285.82 256.112C285.972 256.485 286.222 256.811 286.543 257.055L288.961 259.257C289.266 259.575 289.63 259.831 290.033 260.01C290.685 260.18 291.373 260.159 292.013 259.948C298.657 258.423 305.718 256.666 310.382 251.687C312.594 249.328 314.636 246.079 317.893 245.991C319.259 245.991 320.536 246.517 321.881 246.674C323.226 246.832 324.844 246.257 325.165 244.944C325.269 244.291 325.194 243.622 324.947 243.009L322.939 236.314C322.393 234.481 316.882 234.385 315.045 234.714C312.246 235.199 310.361 237.593 307.391 237.866Z" fill="#65617D"/>
<path d="M331.045 275.581C330.949 277.872 331.133 280.19 330.758 282.461C330.427 284.251 329.855 285.988 329.057 287.624C327.829 290.254 326.269 292.716 324.414 294.948C322.686 297 320.617 298.928 318.057 299.735C315.496 300.542 312.348 299.961 310.75 297.8C309.446 296.042 309.385 293.697 309.48 291.501C309.712 286.106 310.559 280.635 312.976 275.807C314.014 273.755 315.332 271.799 316.391 269.727C318.603 265.426 319.866 260.324 323.683 257.356C326.078 258.464 328.639 259.169 331.263 259.442C332.281 259.551 335.189 259.62 335.531 260.926C335.763 261.808 333.851 264.277 333.482 265.145C332.025 268.441 331.198 271.98 331.045 275.581Z" fill="#65617D"/>
<path d="M303.977 176.956C304.796 179.049 305.834 181.1 306.025 183.33C306.162 184.697 306.025 186.065 306.025 187.433C306.14 189.307 306.451 191.163 306.954 192.972L310.757 208.564C311.324 210.895 311.891 213.289 311.597 215.669C311.399 217.255 310.825 218.794 310.832 220.387C310.905 221.596 311.097 222.794 311.406 223.964C312.126 227.579 311.929 231.318 310.832 234.837C310.72 235.102 310.68 235.392 310.716 235.678C310.812 236.123 311.242 236.396 311.631 236.608C315.726 238.852 320.19 240.341 324.81 241.005C328.98 231.07 331.894 220.652 333.482 209.993C334.452 203.537 334.923 197 336.166 190.592C336.194 190.222 336.351 189.873 336.61 189.607C337.074 189.217 337.777 189.464 338.324 189.724C345.302 193.084 352.016 196.97 358.406 201.349C360.654 198.435 362.234 195.061 363.035 191.468C363.836 187.874 363.839 184.148 363.043 180.553C362.24 177.454 361.095 174.454 359.629 171.608C358.066 168.147 356.119 164.874 353.824 161.85C348.758 155.49 341.328 151.428 333.68 148.672C329.03 146.99 324.243 145.745 319.463 144.473C316.787 143.755 312.3 141.416 309.699 143.235C306.967 145.13 305.151 149.828 304.031 152.809C302.649 156.507 301.896 160.412 301.805 164.36C301.693 168.661 302.431 172.942 303.977 176.956Z" fill="#3F3D56"/>
<path d="M358.871 195.755C357.444 197.314 358.645 199.804 358.372 201.91C358.194 202.861 357.854 203.774 357.368 204.611L350.834 217.461C349.741 219.389 348.923 221.46 348.403 223.615C347.508 228.252 349.345 233.463 346.996 237.559C346.238 238.879 345.063 240.014 344.749 241.505C344.517 242.592 344.749 243.727 344.633 244.828C344.476 246.121 343.787 247.283 343.404 248.528C343.106 249.724 342.894 250.939 342.769 252.166C341.941 257.395 339.206 262.132 335.094 265.46C332.738 267.46 329.712 268.491 326.627 268.346C323.581 268.086 320.556 266.014 319.935 263.018C319.723 262 319.764 260.864 319.129 260.037C318.228 258.854 316.329 258.806 315.462 257.596L318.822 252.056C319.866 250.34 320.932 248.548 321.102 246.545C321.307 244.09 320.126 241.641 320.549 239.214C320.911 237.128 322.407 235.391 322.857 233.326C323.417 230.761 322.297 228.17 321.69 225.612C320.201 219.314 321.867 212.749 323.526 206.464C325.732 198.149 327.992 189.703 332.458 182.352C341.369 187.159 349.563 191.775 358.871 195.755Z" fill="#3F3D56"/>
<path d="M358.953 65.4951C359.485 66.9449 359.198 68.5519 359.096 70.0906C358.857 73.5099 359.581 76.9291 359.417 80.3963C359.253 83.8634 358.188 87.1732 357.45 90.5446C355.354 100.166 355.859 110.192 353.961 119.855C351.619 131.822 345.63 142.969 344.449 155.114C344.073 158.971 344.121 163.101 342.011 166.356C329.473 160.829 317.62 153.857 306.694 145.581C309.098 127.726 311.474 109.781 311.153 91.7687C310.998 89.5973 311.149 87.4147 311.604 85.2858C312.174 83.4976 312.992 81.7986 314.035 80.239C316.678 75.9375 319.586 71.8071 322.489 67.6834C324.346 65.0438 326.353 62.2742 329.317 61.0364C332.281 59.7986 335.79 60.3526 339.02 60.9407C342.908 61.6519 346.791 62.3631 350.67 63.0743C353.094 63.5188 357.915 62.6708 358.953 65.4951Z" fill="#6C63FF"/>
<path d="M265.45 133.914C263.857 132.318 262.12 130.874 260.261 129.599C262.685 126.645 262.207 122.371 262.801 118.589C263.287 116.133 264.027 113.733 265.006 111.429C265.252 110.78 265.6 110.062 266.276 109.891C266.692 109.839 267.113 109.906 267.492 110.082C269.54 110.807 273.815 110.766 275.406 112.093C277.325 113.707 275.57 117.085 274.846 119.102C274.334 120.456 266.468 134.94 265.45 133.914Z" fill="#BE6F72"/>
<path d="M271.398 261.624C272.426 263.291 273.098 265.154 273.371 267.094C273.535 269.036 272.825 271.163 271.172 272.189C269.52 273.215 267.15 272.873 265.184 272.257C261.013 270.899 257.175 268.674 253.921 265.728C250.668 262.782 248.072 259.181 246.303 255.161C245.682 253.725 245.142 252.2 244.043 251.092C243.226 250.374 242.32 249.764 241.346 249.28C238.662 247.762 236.074 245.765 234.831 242.934C233.589 240.103 234.148 236.321 236.723 234.639C237.525 234.175 238.412 233.875 239.331 233.758C240.25 233.641 241.183 233.708 242.076 233.955C243.856 234.462 245.56 235.205 247.143 236.164C249.792 237.607 253.029 238.852 255.337 240.773C257.386 242.462 259.223 244.746 260.971 246.736C262.973 249.026 264.849 251.423 266.591 253.917C267.15 254.648 271.869 260.96 271.398 261.624Z" fill="#65617D"/>
<path d="M221.345 247.27C221.113 250.711 220.506 254.116 219.536 257.425C218.982 259.285 218.252 261.22 216.715 262.404C215.416 263.247 213.943 263.787 212.407 263.983C211.871 264.129 211.311 264.164 210.761 264.086C209.819 263.888 209.149 263.074 208.569 262.301C206.288 259.278 204.069 256.085 203.106 252.419C201.74 247.106 203.106 241.409 205.476 236.444C206.327 234.443 207.569 232.632 209.129 231.117C211.056 229.531 213.371 228.49 215.834 228.101C218.354 227.595 221.447 226.515 221.632 229.585C221.902 235.48 221.806 241.387 221.345 247.27Z" fill="#65617D"/>
<path d="M259.127 118.733C263.839 121.174 269.069 124.279 270.053 129.497C270.66 132.684 269.493 135.946 269.684 139.187C269.855 142.039 271.05 144.795 270.899 147.639C270.74 148.984 270.512 150.319 270.216 151.64C269.814 154.163 270.053 156.735 269.95 159.285C269.725 165.03 267.806 170.555 266.877 176.224C266.22 180.272 266.066 184.386 266.42 188.472C266.645 191.112 267.103 193.738 267.103 196.391C267.103 198.302 266.945 200.21 266.632 202.094C265.716 208.016 263.873 213.756 261.169 219.102C257.884 225.578 258.349 233.934 258.697 241.19C258.849 242.19 258.721 243.213 258.328 244.144C257.468 245.71 255.324 245.936 253.548 245.786C246.964 245.183 240.858 242.086 236.477 237.128C235.838 236.505 235.404 235.701 235.234 234.823C235.084 233.36 236.258 232.156 237.105 230.946C239.987 226.843 239.256 221.283 239.598 216.243C239.847 212.576 240.722 208.98 242.186 205.609C243.032 203.66 244.091 201.739 244.282 199.619C244.459 197.643 243.859 195.687 243.264 193.799L241.216 187.289C238.041 177.175 234.845 166.999 230.038 157.555C226.884 159.61 224.626 162.788 223.721 166.445C221.932 172.887 224.479 180.081 222.042 186.277C221.638 187.136 221.302 188.025 221.038 188.937C220.894 189.724 220.839 190.525 220.874 191.324C220.937 197.99 221.343 204.648 222.089 211.272C222.126 212.275 222.407 213.254 222.909 214.123C223.312 214.705 223.899 215.135 224.329 215.689C225.524 217.242 225.299 219.416 225.012 221.352L223.646 230.501C223.622 230.965 223.468 231.413 223.202 231.794C222.88 232.106 222.479 232.324 222.042 232.423C217.702 233.772 213.128 234.192 208.617 233.654C207.285 233.497 206.077 232.601 204.964 231.849C204.847 230.481 206.548 229.571 206.609 228.211C206.543 227.404 206.169 226.655 205.564 226.118C203.024 223.246 199.992 220.196 200.02 216.359C200.02 215.354 200.259 214.349 200.225 213.344C200.136 210.766 198.36 208.557 197.739 206.074C196.974 203.004 197.992 199.817 198.381 196.678C198.913 192.452 198.285 188.171 197.698 183.952L195.41 168.47C195.145 166.066 194.669 163.691 193.99 161.371C193.129 159.087 192.119 156.862 190.965 154.71C188.78 150.265 186.984 145.643 185.195 141.033C184.627 139.781 184.269 138.443 184.137 137.074C184.034 134.728 185.243 132.513 186.745 130.707C189.559 127.352 193.399 125.021 197.671 124.074C198.385 123.875 199.135 123.844 199.863 123.985C200.475 124.188 201.049 124.491 201.563 124.881C206.842 128.339 212.848 130.525 219.111 131.269C225.375 132.013 231.725 131.294 237.665 129.169C238.348 129.688 239.611 129.463 240.396 129.093C242.588 128.088 244.377 126.413 246.303 124.99C249.888 122.269 254.723 119.684 259.127 118.733Z" fill="#3F3D56"/>
<path d="M117.593 294.352C117.956 295.4 118.501 296.375 119.205 297.231C121.677 300.459 125.125 303.037 126.716 306.805C127.051 307.612 127.296 308.46 127.604 309.281C128.538 311.758 130.062 313.969 132.042 315.723C133.553 316.979 135.194 318.068 136.938 318.971C139.956 320.619 143.22 322.11 146.648 322.021C147.338 322.006 148.024 321.924 148.697 321.775C149.764 321.553 150.792 321.175 151.749 320.653C153.955 319.436 155.846 317.056 155.409 314.574C155.321 314.101 155.172 313.641 154.965 313.206C154.603 312.514 154.185 311.853 153.716 311.23C152.562 309.63 151.374 307.988 149.687 306.963C147.789 305.8 145.399 305.513 143.692 304.077C143.018 303.466 142.436 302.761 141.964 301.984C140.417 299.602 139.264 296.986 138.55 294.236C138.031 292.184 137.683 289.935 136.187 288.43C134.692 286.926 132.636 286.584 130.642 286.242C129.969 286.103 129.282 286.036 128.594 286.043C127.617 286.078 126.607 286.358 125.692 285.9C124.777 285.442 124.469 284.792 123.363 284.881C122.483 285 121.653 285.362 120.966 285.927C118.372 287.849 116.651 291.268 117.593 294.352Z" fill="#3F3D56"/>
<path d="M141.855 297.464C142.299 299.782 142.981 302.251 144.77 303.762C145.911 304.747 147.502 305.362 148.069 306.751C148.635 308.139 147.905 309.883 146.962 311.155C145.759 312.763 144.268 314.134 142.565 315.196C141.117 316.092 139.39 316.776 137.73 316.379C136.365 316.058 135.286 315.073 134.268 314.123C131.933 311.955 129.543 309.705 128.232 306.799C126.866 303.735 126.798 300.186 125.309 297.17C124.442 295.412 123.104 293.874 122.578 291.986C122.342 291.304 122.342 290.562 122.578 289.88C122.833 289.392 123.218 288.984 123.691 288.703C124.163 288.421 124.705 288.277 125.255 288.287C126.354 288.323 127.438 288.555 128.457 288.97C131.54 290.071 134.696 290.955 137.901 291.617C139.178 291.856 139.95 291.849 140.632 293.087C141.263 294.474 141.676 295.951 141.855 297.464Z" fill="#FBBEBE"/>
<path d="M149.776 317.063C149.27 317.839 148.911 318.701 148.717 319.607C148.556 320.312 148.531 321.04 148.642 321.754C149.709 321.533 150.738 321.155 151.695 320.633C153.9 319.416 155.792 317.036 155.355 314.553C155.266 314.08 155.117 313.62 154.911 313.186C154.585 313.112 154.246 313.126 153.927 313.226C153.608 313.326 153.321 313.507 153.094 313.753C151.823 314.677 150.703 315.793 149.776 317.063Z" fill="#FBBEBE"/>
<path d="M125.303 265.104C125.006 265.744 124.917 266.462 125.05 267.155C125.364 268.523 126.764 269.31 128.027 269.932L140.038 275.813C140.872 276.199 141.683 276.631 142.469 277.106C144.518 278.364 146.129 280.142 147.878 281.769C149.626 283.397 151.572 284.922 153.887 285.496C156.197 286.004 158.613 285.687 160.715 284.601C161.848 284.035 162.9 283.32 163.843 282.474C164.658 281.757 165.412 280.972 166.096 280.128C166.683 279.507 167.104 278.747 167.318 277.919C167.544 276.668 166.922 275.437 166.198 274.404C165.782 273.809 165.325 273.242 164.833 272.708C160.278 267.668 152.815 265.056 146.396 264.03C143.842 263.62 141.418 262.663 138.96 261.883C136.501 261.103 133.9 260.515 131.346 260.878C128.792 261.24 126.279 262.71 125.303 265.104Z" fill="#3F3D56"/>
<path opacity="0.1" d="M125.303 265.104C125.006 265.744 124.917 266.462 125.05 267.155C125.364 268.523 126.764 269.31 128.027 269.932L140.038 275.813C140.872 276.199 141.683 276.631 142.469 277.106C144.518 278.364 146.129 280.142 147.878 281.769C149.626 283.397 151.572 284.922 153.887 285.496C156.197 286.004 158.613 285.687 160.715 284.601C161.848 284.035 162.9 283.32 163.843 282.474C164.658 281.757 165.412 280.972 166.096 280.128C166.683 279.507 167.104 278.747 167.318 277.919C167.544 276.668 166.922 275.437 166.198 274.404C165.782 273.809 165.325 273.242 164.833 272.708C160.278 267.668 152.815 265.056 146.396 264.03C143.842 263.62 141.418 262.663 138.96 261.883C136.501 261.103 133.9 260.515 131.346 260.878C128.792 261.24 126.279 262.71 125.303 265.104Z" fill="black"/>
<path d="M155.361 268.858C156.285 269.897 157.045 271.071 157.615 272.339C158.128 273.17 158.311 274.163 158.127 275.123C157.859 275.768 157.428 276.334 156.877 276.764L155.682 277.872C155.322 278.247 154.902 278.562 154.44 278.802C153.786 279.047 153.088 279.152 152.391 279.109C150.786 279.109 149.059 279.109 147.755 278.145C145.972 276.86 145.651 274.199 146.464 272.155C147.277 270.11 148.977 268.564 150.691 267.183C152.084 266.055 154.385 267.826 155.361 268.858Z" fill="#FBBEBE"/>
<path d="M162.654 275.93C162.433 277.065 162.54 278.239 162.962 279.315C163.262 280.341 163.556 281.367 163.849 282.413C163.849 282.413 163.849 282.413 163.849 282.454C164.665 281.737 165.419 280.952 166.103 280.108C166.69 279.487 167.11 278.727 167.325 277.9C167.55 276.648 166.929 275.417 166.205 274.385C165.788 273.789 165.332 273.223 164.839 272.689C164.518 273.106 164.239 273.516 164.006 273.783C163.409 274.395 162.948 275.126 162.654 275.93Z" fill="#FBBEBE"/>
<path d="M131.277 224.962C129.864 230.912 130.465 237.135 131.216 243.208C131.79 247.83 132.431 252.617 131.066 257.069C130.56 258.731 129.762 260.42 130.069 262.137C130.649 265.371 134.541 266.616 137.764 267.224C138.694 267.461 139.661 267.519 140.612 267.395C141.566 267.135 142.452 266.668 143.207 266.028C147.788 262.692 151.268 258.06 153.197 252.727C154.419 249.157 154.808 245.362 155.184 241.607C155.812 235.289 156.447 228.895 155.525 222.617C155.252 220.77 154.843 218.945 154.672 217.084C154.457 213.849 154.636 210.6 155.204 207.408C156.38 199.501 158.161 191.695 160.531 184.061C154.028 184.926 147.419 183.73 141.629 180.642C142.749 181.244 141.466 190.838 141.329 192.185C140.915 196.202 140.191 200.18 139.164 204.084C137.259 211.381 133.005 217.714 131.277 224.962Z" fill="#3F3D56"/>
<path opacity="0.1" d="M131.277 224.962C129.864 230.912 130.465 237.135 131.216 243.208C131.79 247.83 132.431 252.617 131.066 257.069C130.56 258.731 129.762 260.42 130.069 262.137C130.649 265.371 134.541 266.616 137.764 267.224C138.694 267.461 139.661 267.519 140.612 267.395C141.566 267.135 142.452 266.668 143.207 266.028C147.788 262.692 151.268 258.06 153.197 252.727C154.419 249.157 154.808 245.362 155.184 241.607C155.812 235.289 156.447 228.895 155.525 222.617C155.252 220.77 154.843 218.945 154.672 217.084C154.457 213.849 154.636 210.6 155.204 207.408C156.38 199.501 158.161 191.695 160.531 184.061C154.028 184.926 147.419 183.73 141.629 180.642C142.749 181.244 141.466 190.838 141.329 192.185C140.915 196.202 140.191 200.18 139.164 204.084C137.259 211.381 133.005 217.714 131.277 224.962Z" fill="black"/>
<path d="M166.731 190.1C169.462 198.025 168.861 206.683 167.68 214.985C166.499 223.287 164.758 231.589 165.27 239.952C165.468 243.235 166 246.606 165.044 249.745C164.513 251.276 163.81 252.742 162.948 254.115L141.158 291.85C140.603 292.829 139.812 293.654 138.859 294.251C137.905 294.848 136.818 295.198 135.696 295.269C133.367 295.433 131.079 294.667 128.908 293.812C127.465 293.333 126.124 292.589 124.954 291.617C124.374 291.133 123.92 290.516 123.63 289.818C123.34 289.121 123.222 288.363 123.288 287.61C124.265 281.059 125.733 274.35 126.818 267.778C127.557 263.319 129.167 259.05 131.557 255.216C133.244 252.48 135.32 250.025 136.774 247.181C140.953 239.029 139.506 229.086 136.283 220.51C133.06 211.935 128.259 203.975 125.699 195.208C124.939 192.768 124.506 190.239 124.408 187.686C124.376 185.049 124.864 182.431 125.844 179.984C126.824 177.536 128.275 175.306 130.117 173.42C130.654 172.811 131.331 172.342 132.09 172.053C132.977 171.847 133.901 171.863 134.78 172.101C146.915 174.46 162.723 178.392 166.731 190.1Z" fill="#3F3D56"/>
<path d="M362.592 71.7725C362.988 74.7677 361.909 77.7971 360.373 80.3889C354.562 90.0995 341.165 94.394 330.806 89.8738C326.538 88.0069 322.926 84.9296 319.389 81.8934C318.2 80.8676 316.964 79.794 316.363 78.3442C315.305 75.7798 316.582 72.723 318.665 70.8903C320.747 69.0576 323.445 68.1549 326.128 67.3411C334.985 64.5784 360.482 55.8662 362.592 71.7725Z" fill="#FBBEBE"/>
<path d="M357.409 62.2671C365.474 68.7637 377.212 74.9525 386.349 79.7668C389.456 81.408 392.904 83.2544 394.024 86.6053C394.625 88.3969 394.427 90.3459 394.229 92.2333C393.846 95.8646 393.45 99.5505 392.05 102.922C390.405 106.868 387.496 110.123 385.16 113.706C381.063 119.984 378.66 127.383 373.6 132.929C377.014 144.288 380.749 155.633 381.965 167.422C382.032 167.747 381.996 168.084 381.862 168.387C381.722 168.586 381.541 168.752 381.33 168.872L372.835 174.452C371.909 174.994 371.08 175.687 370.384 176.504C368.881 178.46 369.079 181.209 368.151 183.486C367.641 184.598 366.913 185.595 366.01 186.417C365.106 187.24 364.046 187.871 362.893 188.273C360.571 189.074 358.099 189.336 355.661 189.039C352.559 188.843 349.571 187.79 347.03 185.996C344.865 184.355 343.322 182.05 341.834 179.78C340.731 178.231 339.814 176.558 339.102 174.794C338.194 172.278 338.139 169.536 338.174 166.855C338.196 161.754 338.683 156.665 339.628 151.653C340.024 149.663 340.516 147.7 340.83 145.697C341.458 141.662 341.335 137.545 341.8 133.49C342.434 128.929 343.45 124.429 344.838 120.039C345.598 117.319 346.19 114.556 346.614 111.764C347.413 106.854 349.004 102.115 350.595 97.4032L353.326 89.327C353.906 87.5832 354.494 85.8462 355.183 84.1434C356.467 80.9635 358.12 77.8657 358.557 74.4738C359.041 70.7742 355.054 66.3839 356.399 62.9099C356.508 62.527 357.102 62.0209 357.409 62.2671Z" fill="#3F3D56"/>
<path d="M391.838 84.6975C393.73 85.5523 394.775 87.5902 395.451 89.5597C396.975 93.9983 397.341 98.7531 396.516 103.373C396.249 104.535 396.067 105.714 395.97 106.902C395.984 108.279 396.119 109.652 396.373 111.005C397.055 116.237 396.373 121.55 396.598 126.829C396.83 132.765 398.121 139.036 395.635 144.432C393.983 148.015 390.855 150.682 387.769 153.103C376.278 162.072 363.599 169.399 350.096 174.876C352.425 172.073 352.466 167.853 350.915 164.55C349.365 161.247 346.484 158.765 343.404 156.837C347.324 155.964 351.12 154.606 354.705 152.795C361.861 149.157 367.993 143.83 374.05 138.557C374.944 137.914 375.639 137.033 376.058 136.013C376.672 133.962 374.979 132.013 373.805 130.214C370.247 124.744 371.073 117.597 372.562 111.265C374.221 104.324 376.659 97.4102 381.104 91.83C383.877 88.3424 387.496 85.6617 391.838 84.6975Z" fill="#3F3D56"/>
<path d="M349.495 175.049C348.881 176.051 348.084 176.928 347.146 177.634C345.098 179.001 342.284 178.482 339.997 177.511C337.871 176.608 335.91 175.357 334.193 173.811C333.454 173.025 332.583 172.377 331.618 171.896C329.829 171.212 327.33 171.725 326.326 170.077C326.209 169.904 326.152 169.698 326.162 169.489C326.224 168.894 327.002 168.73 327.603 168.696C330.391 168.511 333.097 167.675 335.504 166.254C334.735 165.698 334.077 165.002 333.564 164.203C333.352 163.924 333.237 163.583 333.237 163.232C333.32 162.85 333.529 162.508 333.831 162.261C336.026 160.186 338.787 158.813 341.764 158.316C344.741 157.819 347.799 158.221 350.547 159.47C351.083 159.688 351.554 160.041 351.912 160.496C352.165 160.916 352.334 161.38 352.411 161.864C352.855 163.779 354.46 166.651 353.879 168.586C353.237 170.809 350.813 173.168 349.495 175.049Z" fill="#FBBEBE"/>
<path d="M302.932 166.425C311.426 156.598 315.223 143.667 318.746 131.159L321.266 122.269L327.343 100.857C328.238 97.6981 329.133 94.5387 329.727 91.3178C330.744 85.7581 330.84 80.0752 330.778 74.4266C330.691 72.085 330.156 69.7819 329.201 67.6428C328.607 66.1657 328.32 64.5928 327.835 63.0678C327.218 60.9418 326.296 58.9169 325.097 57.0568C324.763 56.5038 324.346 56.0056 323.861 55.5797C323.021 55.0077 322.069 54.6208 321.068 54.4445C318.897 53.798 316.648 53.4552 314.383 53.4255C312.116 53.5076 309.781 54.294 308.319 56.0173C307.206 57.3372 306.694 59.0468 305.813 60.5308C305.403 61.1384 305.032 61.771 304.7 62.425C304.325 63.4186 304.117 64.4678 304.086 65.5297C303.731 69.838 303.428 74.1508 303.178 78.4682C303.061 80.4308 302.959 82.4072 303.034 84.3767C303.096 85.9085 303.259 87.4335 303.423 88.9585L305.042 103.894C305.417 107.402 305.151 110.684 305.465 114.199C306.23 122.686 304.407 131.173 302.536 139.502C301.641 143.461 300.719 147.476 298.807 151.059C297.121 154.232 294.594 157.453 295.263 160.989C295.496 162.22 296.117 163.368 296.213 164.613C296.166 165.384 296.242 166.157 296.438 166.904C296.717 167.412 297.149 167.818 297.673 168.064C298.197 168.31 298.786 168.382 299.354 168.272C300.706 168.034 301.954 167.39 302.932 166.425Z" fill="#3F3D56"/>
<path d="M303.97 127.097C304.229 129.059 304.031 131.049 304.127 133.026C304.341 135.571 304.798 138.09 305.492 140.548C306.175 143.284 307.049 146.347 309.46 147.865C310.064 148.18 310.642 148.544 311.187 148.953C311.456 149.165 311.653 149.454 311.754 149.782C311.854 150.109 311.851 150.459 311.747 150.786L309.87 150.471C310.083 150.634 310.259 150.84 310.387 151.077C310.515 151.313 310.591 151.573 310.612 151.841C310.633 152.109 310.596 152.378 310.506 152.631C310.415 152.883 310.273 153.114 310.087 153.308C309.901 153.502 309.677 153.654 309.428 153.755C309.179 153.856 308.912 153.903 308.644 153.893C308.376 153.884 308.113 153.818 307.873 153.699C307.632 153.581 307.419 153.413 307.247 153.206C307.319 153.823 307.26 154.447 307.077 155.039C306.982 155.33 306.8 155.584 306.555 155.768C306.311 155.951 306.016 156.055 305.711 156.065C305.357 156.01 305.022 155.869 304.735 155.655L299.832 152.611C298.363 151.819 297.141 150.636 296.301 149.192L294.157 145.958C293.685 145.334 293.309 144.642 293.044 143.906C292.245 141.171 294.478 138.134 293.317 135.556C292.969 134.921 292.559 134.321 292.095 133.764C289.616 130.345 289.773 125.695 290.046 121.455C290.135 120.026 290.395 118.33 291.685 117.707C292.71 117.208 293.939 117.653 294.888 118.275C295.837 118.897 296.677 119.718 297.756 120.087C298.439 120.32 299.19 120.347 299.873 120.593C300.829 120.928 301.716 122.234 302.358 123.007C303.266 124.193 303.824 125.61 303.97 127.097Z" fill="#FBBEBE"/>
<path d="M244.132 65.6383C243.552 66.9716 242.738 68.1899 241.728 69.2353C241.221 69.7577 240.598 70.1536 239.91 70.3911C239.222 70.6287 238.488 70.7012 237.768 70.603C236.252 70.3021 235.139 69.0507 234.135 67.8676C231.513 64.7835 228.856 61.6583 227.095 58.0066C224.404 52.4469 223.974 46.1009 223.585 39.9394C223.489 38.3529 223.407 36.6707 224.165 35.2824C225.128 33.5113 227.17 32.677 229.054 31.9726L239.468 28.0747C240.106 27.772 240.812 27.6423 241.516 27.6986C243.148 27.9721 243.749 29.9416 244.193 31.535C244.988 34.3982 246.307 37.0883 248.085 39.4676C250.421 42.5859 255.658 46.7847 252.667 50.6758C249.055 55.3396 246.761 60.3727 244.132 65.6383Z" fill="#BE6F72"/>
<path d="M257.454 47.8457C262.015 52.1403 263.559 58.8283 263.34 65.0856C263.122 71.3428 261.387 77.4428 260.397 83.6248C259.407 89.8068 259.209 96.406 261.893 102.089C262.814 104.038 264.071 105.843 264.713 107.902C265.251 109.936 265.433 112.048 265.252 114.145C265.241 116.356 264.82 118.545 264.009 120.601C262.555 123.828 259.564 126.072 256.703 128.123C250.865 132.349 244.91 136.644 238.054 138.853C233.411 140.35 228.495 140.843 223.633 141.109C220.341 141.372 217.03 141.278 213.759 140.829C208.036 139.874 202.776 137.086 198.77 132.883C198.072 132.205 197.497 131.412 197.07 130.537C196.653 129.399 196.451 128.193 196.476 126.981C196.312 122.49 196.339 118 196.558 113.509C196.683 109.23 197.271 104.976 198.313 100.824C199.617 96.0367 201.877 91.5507 203.591 86.8868C209.559 70.6727 208.958 52.2223 217.248 37.0818C219.037 33.813 222.028 30.3732 225.715 30.893C226.425 30.9357 227.092 31.2432 227.586 31.7546C228.01 32.377 228.247 33.1079 228.269 33.8609C229.15 41.2191 230.4 48.7689 233.862 55.4091C235.227 58.0146 237.276 61.9809 240.424 62.6784C243.572 63.376 245.429 60.367 247.116 58.2334C250.079 54.3208 253.557 50.8267 257.454 47.8457Z" fill="#E3E8F4"/>
<path d="M279.285 36.7732C280.215 37.2768 281.084 37.8873 281.873 38.5922C283.921 40.5344 284.672 43.5091 284.659 46.3266C284.645 49.1441 283.976 51.9205 283.566 54.7106C282.467 62.233 283.402 69.9332 283.839 77.5513C283.973 78.7813 283.899 80.025 283.621 81.2305C283.286 82.3793 282.597 83.3914 282.153 84.5061C280.848 87.8023 281.832 91.5635 281.067 95.0238C280.248 98.7097 277.441 102.061 277.967 105.801C278.179 107.265 278.882 108.612 279.182 110.062C279.483 111.511 279.223 113.262 277.974 114.042C276.724 114.821 274.908 114.254 273.419 114.685C272.814 114.908 272.226 115.173 271.657 115.478C269.356 116.517 266.611 116.162 264.344 115.026C262.122 113.812 260.124 112.225 258.437 110.335C255.836 107.668 253.316 104.748 252.176 101.199C250.51 96.0564 251.991 90.4556 253.801 85.3541C255.61 80.2525 257.768 75.0963 257.447 69.6733C257.27 66.637 256.314 63.717 255.74 60.7354C255.03 56.6043 254.776 52.4076 254.982 48.2209C255.071 45.1572 255.276 41.9978 256.594 39.2282C257.533 37.3807 258.921 35.799 260.629 34.6281C262.338 33.4572 264.312 32.7346 266.372 32.5265C271.152 32.0067 275.249 34.4481 279.285 36.7732Z" fill="#3F3D56"/>
<path opacity="0.1" d="M266.372 102.875C266.42 105.063 266.812 107.23 267.533 109.296C268.755 106.506 268.899 103.374 269.062 100.338C269.745 89.8815 272.06 80.0202 274.525 69.8923C272.729 71.26 271.719 74.6793 270.858 76.7309C267.444 85.004 265.911 93.9347 266.372 102.875Z" fill="black"/>
<path d="M220.341 30.0167C217.05 30.8852 214.196 32.841 211.007 34.1198C207.695 35.4875 204.13 36.0688 200.655 36.9099C192.611 38.8657 184.533 42.4969 179.678 49.2191C176.1 54.1634 174.618 60.2701 172.166 65.8708C170.118 70.5688 167.386 74.9728 165.877 79.8623C163.904 86.2426 164.129 93.0811 164.614 99.7418C165.01 105.213 165.611 110.745 168.09 115.593C169.387 118.137 171.176 120.414 172.474 122.958C174.031 126.015 174.85 129.387 176.147 132.532C177.445 135.678 179.35 138.824 182.361 140.465L187.346 137.545C194.782 133.189 202.218 128.826 209.423 124.094C215.705 119.99 222.042 115.279 225.387 108.536C228.351 102.58 228.645 95.6182 227.88 89.0054C227.115 82.3926 225.367 75.9234 224.466 69.3311C223.317 61.0339 223.49 52.6068 224.978 44.3638C225.661 40.6437 227.477 36.8005 227.853 33.094C228.269 29.1346 223.189 29.2645 220.341 30.0167Z" fill="#3F3D56"/>
<path d="M189.524 138.728C193.341 142.346 198.832 143.399 203.605 145.567C207.151 147.216 210.344 149.538 213.007 152.405C214.476 154.019 215.896 156.214 215.158 158.265C214.537 160.03 212.632 160.932 210.884 161.589C208.712 162.41 206.288 163.134 204.124 162.307C202.854 161.821 201.829 160.85 200.662 160.16C197.8 158.457 194.195 158.45 191.259 156.877C187.121 154.662 185.059 149.786 181.166 147.153C179.036 145.717 176.093 144.541 175.874 141.976C175.864 141.049 176.06 140.131 176.448 139.289C177.233 137.196 178.571 130.009 181.562 130.201C184.82 130.413 187.1 136.998 189.524 138.728Z" fill="#FBBEBE"/>
<path d="M169.524 106.676C170.773 111.176 173.675 115.013 176.687 118.582C178.851 121.147 181.228 123.937 181.303 127.295C181.371 130.468 179.254 133.388 176.523 135.008C173.792 136.629 170.575 137.149 167.414 137.354C164.885 137.598 162.332 137.42 159.861 136.827C153.62 135.132 149.291 129.681 144.381 125.469C141.466 122.973 138.188 120.798 135.955 117.673C133.722 114.548 132.78 110.061 134.978 106.909C135.772 105.887 136.689 104.968 137.71 104.174C141.439 100.935 144.619 97.1133 147.126 92.8557C148.137 91.1393 149.107 89.2792 150.807 88.2466C153.245 86.7626 156.372 87.4396 159.131 88.1645C162.128 88.9509 170.575 90.4896 171.163 94.3192C171.402 95.8921 169.455 98.3402 169.162 100.029C168.788 102.244 168.912 104.515 169.524 106.676Z" fill="#FBBEBE"/>
<path d="M184.963 115.252C185.857 116.876 186.594 118.582 187.162 120.347C189.244 127.595 185.523 135.063 183.747 142.394C181.48 151.783 182.443 161.603 182.334 171.266C182.286 175.684 181.815 180.546 178.64 183.61C177.82 184.389 176.837 185.046 176.284 186.03C175.942 186.752 175.688 187.512 175.526 188.294C175.041 189.984 174.181 191.542 173.011 192.852C171.84 194.162 170.389 195.19 168.766 195.859C167.142 196.529 165.389 196.822 163.637 196.718C161.884 196.613 160.178 196.113 158.646 195.255C156.058 193.813 153.811 191.31 150.848 191.234C149.916 191.279 148.988 191.382 148.069 191.542C145.119 191.836 142.23 190.742 139.465 189.668C138.805 189.46 138.189 189.13 137.648 188.697C137.15 188.239 136.829 187.624 136.371 187.131C134.685 185.312 131.803 185.627 129.372 185.121C127.558 184.714 125.898 183.8 124.583 182.483C123.269 181.167 122.356 179.504 121.95 177.687C121.458 175.335 121.875 172.9 122.284 170.527L124.114 159.955C124.882 156.077 125.414 152.156 125.705 148.213C125.93 143.758 125.548 139.293 124.572 134.94C123.766 131.384 122.564 127.903 122.127 124.279C121.366 117.783 123.072 111.238 126.907 105.945C127.856 104.639 129.099 103.332 130.711 103.209C132.015 103.093 133.237 103.791 134.371 104.461C144.217 110.296 154.132 116.011 164.116 121.605C166.847 123.144 169.64 124.689 172.685 125.448C173.6 125.681 174.911 125.585 175.041 124.655C175.057 124.3 174.964 123.949 174.775 123.65C173.068 120.36 170.596 117.536 168.629 114.404C166.663 111.272 165.147 107.566 165.727 103.927C166.519 98.8943 171.19 95.564 175.007 99.5098C179.288 103.989 182.156 109.747 184.963 115.252Z" fill="#F86D70"/>
<path d="M154.385 179.076C162.395 179.588 170.582 180.136 177.998 183.213C180.381 184.197 182.908 185.469 185.414 184.861C186.661 184.481 187.821 183.858 188.828 183.028C191.915 180.761 194.832 178.27 197.555 175.574C197.282 174.077 195.253 173.872 193.738 173.885C190.041 173.907 186.395 173.03 183.112 171.328C182.033 170.678 180.889 170.144 179.698 169.735C176.455 168.839 173.15 170.548 169.893 171.383C165.072 172.613 159.991 171.895 155.068 171.171L141.78 169.208C140.544 169.03 139.151 168.887 138.167 169.653C137.51 170.274 137.06 171.084 136.877 171.971C135.252 177.441 136.03 177.899 141.438 178.241L154.385 179.076Z" fill="#FBBEBE"/>
<path opacity="0.1" d="M335.831 84.1306C347.899 84.1306 357.682 74.3331 357.682 62.2472C357.682 50.1613 347.899 40.3638 335.831 40.3638C323.763 40.3638 313.98 50.1613 313.98 62.2472C313.98 74.3331 323.763 84.1306 335.831 84.1306Z" fill="black"/>
<path d="M335.674 83.1799C347.742 83.1799 357.526 73.3824 357.526 61.2966C357.526 49.2108 347.742 39.4133 335.674 39.4133C323.606 39.4133 313.823 49.2108 313.823 61.2966C313.823 73.3824 323.606 83.1799 335.674 83.1799Z" fill="#FBBEBE"/>
<path d="M354.118 33.512C355.866 34.5925 357.696 35.755 358.652 37.5741C359.166 38.809 359.557 40.0918 359.82 41.4037C361.015 45.5068 364.197 49.0697 364.388 53.3438C364.6 58.0282 361.09 62.0972 357.116 64.5522C356.209 65.2218 355.115 65.5901 353.988 65.6054C352.834 65.5301 351.837 64.8053 350.779 64.3402C346.293 62.3434 341.274 64.8736 336.521 66.0362C331.582 67.2307 326.4 66.926 321.635 65.1609C319.074 64.2035 316.589 62.7674 314.984 60.5448C313.379 58.3223 312.806 55.2107 314.171 52.8241C314.854 51.6068 315.988 50.5058 315.913 49.1176C315.872 48.2833 315.38 47.531 315.23 46.7104C315.011 45.4042 315.694 44.1323 316.391 43.0176C319.551 37.9245 323.545 33.4003 328.204 29.6345C329.57 28.513 331.147 27.4188 332.936 27.3367C336.528 27.1795 339.614 29.8602 343.309 29.8738C347.501 29.8875 350.513 31.2826 354.118 33.512Z" fill="#3F3D56"/>
<path opacity="0.1" d="M255.235 56.6741C267.68 56.6741 277.769 46.5704 277.769 34.1068C277.769 21.6433 267.68 11.5396 255.235 11.5396C242.79 11.5396 232.701 21.6433 232.701 34.1068C232.701 46.5704 242.79 56.6741 255.235 56.6741Z" fill="black"/>
<path d="M255.631 56.1201C268.076 56.1201 278.165 46.0163 278.165 33.5526C278.165 21.0889 268.076 10.9851 255.631 10.9851C243.186 10.9851 233.097 21.0889 233.097 33.5526C233.097 46.0163 243.186 56.1201 255.631 56.1201Z" fill="#BE6F72"/>
<path d="M267.669 46.2999C270.852 48.0847 274.778 47.9001 278.329 47.0863C280.343 46.7073 282.252 45.9005 283.928 44.7202C284.761 44.1244 285.447 43.347 285.936 42.4467C286.424 41.5463 286.702 40.5465 286.748 39.5229C286.748 37.232 285.246 35.1667 285.062 32.8758C284.836 29.99 286.714 27.3229 286.912 24.4234C287.11 21.5239 285.683 18.9115 284.29 16.4223C281.893 12.1482 279.401 7.81944 275.754 4.55062C272.108 1.28181 267.055 -0.803948 262.275 0.297056C259.926 0.8373 257.748 2.10243 255.351 2.34862C253.22 2.54693 251.117 1.90411 248.994 1.63057C246.87 1.35703 244.487 1.52799 242.964 2.99828C242.131 3.8189 241.598 4.97461 240.622 5.5764C239.96 5.88227 239.275 6.13607 238.573 6.33548C236.108 7.32707 234.982 10.1103 234.107 12.6133L228.249 29.4292C230.208 30.7969 232.571 31.4192 234.715 32.4724C236.859 33.5255 238.942 35.2078 239.379 37.5602C239.714 39.3451 239.079 41.3966 240.117 42.8874C241.066 44.2551 242.998 44.4877 244.637 44.2551C246.276 44.0226 247.922 43.455 249.56 43.7081C253.657 44.3304 255.18 46.847 258.97 43.7081C262.76 40.5692 264.146 44.3167 267.669 46.2999Z" fill="#3F3D56"/>
<path opacity="0.1" d="M159.868 104.96C171.182 104.96 180.354 95.775 180.354 84.4445C180.354 73.1139 171.182 63.9287 159.868 63.9287C148.554 63.9287 139.383 73.1139 139.383 84.4445C139.383 95.775 148.554 104.96 159.868 104.96Z" fill="black"/>
<path d="M160.66 103.845C171.974 103.845 181.146 94.6603 181.146 83.3298C181.146 71.9994 171.974 62.8142 160.66 62.8142C149.347 62.8142 140.175 71.9994 140.175 83.3298C140.175 94.6603 149.347 103.845 160.66 103.845Z" fill="#FBBEBE"/>
<path d="M176.345 63.273C171.468 59.5256 165.988 56.6394 160.141 54.7384C156.399 53.5212 152.33 52.6869 148.533 53.8084C143.384 55.2787 136.494 57.4739 133.306 61.789C131.735 63.909 130.144 66.0905 129.386 68.6276C127.87 73.7292 130.028 79.1658 129.884 84.4862C129.714 90.6888 126.429 96.3512 122.844 101.412C119.259 106.472 118.536 113.721 116.419 119.561C115.695 121.565 115.463 124.348 117.327 125.354C118.966 126.263 120.946 125.128 122.462 124.034L131.578 117.434C132.287 116.851 133.103 116.414 133.982 116.149C135.859 115.711 137.696 116.887 139.267 118.002L158.387 131.542C158.764 130.77 158.968 129.923 158.984 129.063C158.999 128.203 158.825 127.35 158.475 126.564C160.271 127.118 161.575 128.616 163.153 129.682C164.73 130.749 167.127 131.098 168.274 129.607C169.421 128.116 168.554 126.113 167.277 124.909C166 123.705 164.32 122.987 163.071 121.75C160.592 119.281 160.339 115.383 158.776 112.265C157.656 110.076 155.846 108.243 155.054 105.911C153.764 102.102 155.45 97.9993 157.103 94.3338C159.076 89.9844 161.309 85.3411 165.509 83.0706C166.922 82.3047 168.486 81.8534 169.933 81.1559C173.539 79.4257 178.039 75.3431 179.801 71.6844C181.344 68.4361 178.968 65.2972 176.345 63.273Z" fill="#3F3D56"/>
<path opacity="0.1" d="M145.337 131.07C147.297 132.321 149.509 133.121 151.435 134.428C153.361 135.734 155.047 137.717 155.102 140.042C155.157 142.265 153.736 144.214 152.371 145.978L135.736 167.841L144.217 170.091C142.852 171.978 142.503 174.385 141.793 176.601C141.083 178.817 139.745 181.121 137.478 181.703C135.429 182.229 133.285 181.149 131.168 181.272C129.604 181.367 128.13 182.106 126.566 182.168C124.551 182.243 122.68 181.183 121.001 180.061C117.259 177.552 113.544 173.954 113.571 169.441C113.66 167.915 113.966 166.409 114.479 164.969C116.931 156.961 119.471 148.761 124.551 142.1C127.283 138.544 130.622 135.542 133.961 132.561C134.72 131.795 135.614 131.176 136.597 130.735C138.782 129.914 141.165 130.926 143.425 131.583C145.686 132.239 148.533 132.335 149.837 130.4" fill="black"/>
<path d="M144.62 129.723C146.58 130.967 148.792 131.774 150.718 133.08C152.644 134.387 154.33 136.37 154.392 138.688C154.453 141.006 153.026 142.866 151.66 144.631L135.019 166.473L143.5 168.722C142.135 170.61 141.786 173.01 141.076 175.233C140.366 177.455 139.028 179.753 136.761 180.334C134.712 180.861 132.568 179.78 130.451 179.903C128.887 179.992 127.412 180.738 125.849 180.792C123.834 180.868 121.963 179.808 120.284 178.686C116.542 176.183 112.827 172.579 112.861 168.073C112.943 166.546 113.246 165.039 113.762 163.6C116.214 155.586 118.754 147.386 123.834 140.733C126.566 137.17 129.912 134.168 133.244 131.159C134.007 130.398 134.899 129.779 135.88 129.333C138.065 128.512 140.448 129.524 142.708 130.188C144.969 130.851 147.816 130.94 149.12 129.005" fill="#F86D70"/>
<g opacity="0.1">
<path opacity="0.1" d="M315.694 56.0103C317.299 58.2329 319.791 59.6758 322.345 60.6264C327.109 62.3985 332.293 62.7033 337.231 61.5017C342.011 60.3392 347.003 57.8089 351.489 59.8058C352.547 60.2776 353.538 60.9957 354.692 61.0777C355.821 61.0573 356.916 60.687 357.826 60.0178C360.591 58.3081 363.132 55.8189 364.347 52.8851C364.347 53.0356 364.347 53.186 364.388 53.3433C364.6 58.0277 361.09 62.0967 357.116 64.5517C356.209 65.2213 355.115 65.5896 353.988 65.6049C352.834 65.5297 351.837 64.8048 350.779 64.3397C346.293 62.3429 341.274 64.8732 336.521 66.0357C331.582 67.2302 326.4 66.9255 321.635 65.1604C319.074 64.203 316.589 62.7669 314.984 60.5443C313.379 58.3218 312.806 55.2102 314.171 52.8236L314.274 52.6526C314.495 53.8628 314.98 55.0093 315.694 56.0103Z" fill="black"/>
<path opacity="0.1" d="M316.602 44.5836C316.657 45.6367 316.022 46.5189 315.414 47.4148C315.329 47.1927 315.263 46.9639 315.216 46.7309C315.011 45.5068 315.598 44.3168 316.247 43.2432C316.433 43.6692 316.553 44.1212 316.602 44.5836Z" fill="black"/>
</g>
<path opacity="0.1" d="M235.705 10.3837L229.847 27.1929C231.806 28.5606 234.169 29.1898 236.313 30.2361C238.457 31.2824 240.54 32.9715 240.977 35.324C241.312 37.1088 240.676 39.1604 241.714 40.658C242.664 42.0257 244.596 42.2514 246.235 42.0257C247.874 41.8001 249.519 41.2256 251.158 41.4787C255.255 42.101 256.778 44.6176 260.568 41.5129C264.358 38.4081 265.73 42.0941 269.254 44.0773C272.436 45.869 276.362 45.6844 279.913 44.8638C281.926 44.4868 283.835 43.6823 285.512 42.5045C285.751 42.3092 285.979 42.1015 286.195 41.8821C285.672 43.0029 284.885 43.9793 283.901 44.727C282.224 45.9073 280.315 46.7141 278.301 47.0931C274.751 47.9069 270.79 48.0916 267.642 46.3067C264.119 44.3235 262.671 40.7059 258.956 43.7422C255.242 46.7786 253.63 44.3303 249.547 43.7422C247.908 43.4892 246.269 44.0568 244.623 44.2893C242.978 44.5218 241.052 44.2893 240.103 42.9216C239.065 41.4308 239.7 39.3792 239.365 37.5944C238.928 35.2419 236.846 33.5528 234.702 32.5065C232.557 31.4602 230.195 30.8242 228.235 29.4633L234.121 12.6062C234.804 10.753 235.555 8.74929 236.921 7.42944C236.448 8.38473 236.041 9.37187 235.705 10.3837Z" fill="black"/>
<g opacity="0.1">
<path opacity="0.1" d="M159.998 127.302C161.507 127.985 163.412 128.088 164.368 126.809C165.44 125.442 164.648 123.322 163.371 122.111C162.094 120.901 160.415 120.19 159.165 118.952C156.686 116.49 156.434 112.592 154.87 109.474C153.75 107.278 151.94 105.446 151.148 103.114C149.858 99.3115 151.544 95.2015 153.197 91.5429C155.17 87.1936 157.403 82.5503 161.603 80.2799C163.016 79.514 164.58 79.0626 166.028 78.3651C169.633 76.6349 174.133 72.5455 175.895 68.8869C177.377 65.8027 175.287 62.8074 172.801 60.7764C174.01 61.5628 175.191 62.3903 176.339 63.2724C178.968 65.324 181.337 68.4355 179.753 71.6701C177.991 75.3288 173.491 79.4114 169.886 81.1415C168.438 81.8254 166.874 82.2904 165.461 83.0563C161.261 85.3267 159.028 89.9701 157.055 94.3194C155.396 97.9848 153.709 102.088 155.006 105.897C155.799 108.229 157.608 110.062 158.728 112.25C160.312 115.368 160.544 119.266 163.023 121.735C164.273 122.973 165.952 123.684 167.229 124.894C168.506 126.105 169.278 128.197 168.226 129.593C167.175 130.988 164.676 130.7 163.105 129.668C162.047 128.95 161.084 128.006 159.998 127.302Z" fill="black"/>
<path opacity="0.1" d="M118.583 121.236L127.699 114.644C128.408 114.059 129.225 113.619 130.103 113.351C131.981 112.921 133.818 114.097 135.388 115.211L154.508 128.752C154.886 127.978 155.09 127.13 155.105 126.269C155.121 125.408 154.947 124.553 154.597 123.767C156.352 124.314 157.629 125.777 159.151 126.803C158.93 126.702 158.702 126.618 158.468 126.55C158.819 127.336 158.992 128.189 158.977 129.049C158.961 129.909 158.758 130.756 158.38 131.528L139.26 117.988C137.689 116.873 135.846 115.697 133.975 116.135C133.097 116.4 132.28 116.837 131.571 117.42L122.455 124.02C120.939 125.114 118.959 126.249 117.32 125.339C116.872 125.064 116.504 124.674 116.253 124.211C116.003 123.748 115.879 123.226 115.893 122.7C116.86 122.355 117.768 121.861 118.583 121.236Z" fill="black"/>
</g>
<path d="M346.334 165.898C346.334 165.898 307.206 169.037 299.422 163.484L335.217 157.959L346.334 165.898Z" fill="#E3E8F4"/>
<path opacity="0.1" d="M346.334 165.898C346.334 165.898 307.206 169.037 299.422 163.484L335.217 157.959L346.334 165.898Z" fill="black"/>
<path d="M346.334 165.897L335.374 158.95C335.374 158.95 302.679 168.359 293.72 164.475L302.836 151.667L335.23 157.992L346.334 165.897Z" fill="#E3E8F4"/>
<path d="M297.715 73.7692C296.506 75.2981 295.537 77.0021 294.84 78.8228C294.526 79.787 294.369 80.7923 294.103 81.7702C293.353 84.2054 292.199 86.4965 290.688 88.5471C287.322 93.4502 283.116 98.1824 282.269 104.07C281.859 106.977 282.31 109.931 282.883 112.81C283.194 114.708 283.735 116.562 284.495 118.329C285.362 120.202 286.653 121.85 287.643 123.663C288.547 125.441 289.31 127.289 289.924 129.188C291.091 128.019 291.781 126.453 292.716 125.085C293.652 123.717 295.045 122.486 296.691 122.466C298.589 122.466 300.153 124.039 302.03 124.285C302.324 124.344 302.628 124.315 302.905 124.203C303.587 123.881 303.642 122.958 303.587 122.22C303.048 117.057 300.098 111.962 301.491 106.956C302.775 102.327 307.364 99.4339 309.774 95.2829C311.522 92.2672 312.041 88.7112 312.505 85.2509C313.086 81.1137 313.673 76.9422 313.414 72.7776C313.284 70.6782 311.618 57.4116 308.572 58.7998C307.514 59.2785 306.592 61.3095 305.93 62.219L303.198 66.0964L297.715 73.7692Z" fill="#3F3D56"/>
<path d="M215.985 159.354L194.018 177.264L165.755 172.203L184.785 157.241L215.985 159.354Z" fill="#E3E8F4"/>
<path opacity="0.1" d="M216.777 158.239L194.81 176.149L166.547 171.089L185.577 156.126L216.777 158.239Z" fill="black"/>
<path d="M216.62 157.288L194.653 175.191L166.383 170.138L185.42 155.168L216.62 157.288Z" fill="#E3E8F4"/>
<path opacity="0.1" d="M217.255 155.217L195.281 173.127L167.018 168.066L186.056 153.104L217.255 155.217Z" fill="black"/>
<path d="M217.091 154.266L195.124 172.176L166.861 167.115L185.892 152.153L217.091 154.266Z" fill="#E3E8F4"/>
<path d="M506.052 398.982C506.57 398.73 507.141 398.608 507.717 398.627C508.293 398.646 508.855 398.806 509.355 399.093C509.855 399.379 510.278 399.784 510.586 400.271C510.895 400.758 511.08 401.313 511.125 401.889L512.347 417.761L505.096 419.074L501.272 407.599L506.052 398.982Z" fill="#3F3D56"/>
<path d="M252.339 292.595L141.356 348.999C140.083 349.649 139.016 350.641 138.272 351.862C137.528 353.084 137.137 354.488 137.143 355.919C137.148 357.35 137.55 358.752 138.304 359.968C139.057 361.183 140.133 362.166 141.411 362.806L380.442 482.938C384.694 485.071 389.405 486.124 394.16 486.005C398.915 485.886 403.567 484.598 407.708 482.255L508.387 425.399C509.608 424.701 510.616 423.682 511.302 422.453C511.988 421.224 512.325 419.83 512.278 418.422C512.231 417.015 511.801 415.647 511.035 414.466C510.268 413.285 509.195 412.337 507.929 411.722L259.161 292.52C258.094 292.008 256.924 291.749 255.742 291.762C254.559 291.775 253.395 292.06 252.339 292.595Z" fill="#3F3D56"/>
<path d="M140.612 339.186L137.136 341.771L136.863 354.148C136.841 355.113 137.091 356.065 137.583 356.894C138.076 357.724 138.792 358.398 139.649 358.839L382.763 483.778C383.315 484.064 383.931 484.202 384.551 484.18C385.171 484.158 385.776 483.976 386.306 483.653C386.836 483.329 387.274 482.875 387.578 482.332C387.882 481.79 388.042 481.179 388.042 480.558V462.579L140.612 339.186Z" fill="#3F3D56"/>
<path d="M252.339 278.248L141.356 334.645C140.082 335.293 139.013 336.283 138.268 337.504C137.522 338.724 137.129 340.128 137.133 341.559C137.136 342.99 137.536 344.392 138.288 345.609C139.039 346.826 140.113 347.81 141.39 348.452L380.442 468.584C384.695 470.715 389.406 471.767 394.16 471.648C398.914 471.529 403.566 470.242 407.708 467.9L508.387 411.038C509.608 410.34 510.616 409.322 511.302 408.092C511.988 406.863 512.325 405.469 512.278 404.061C512.231 402.654 511.801 401.286 511.035 400.105C510.268 398.924 509.195 397.976 507.929 397.361L259.161 278.166C258.094 277.655 256.923 277.397 255.741 277.412C254.558 277.426 253.394 277.712 252.339 278.248Z" fill="#E3E8F4"/>
<path d="M275.31 288.485L153.026 350.668L363.2 455.913L489.308 391.808L275.31 288.485Z" fill="#3F3D56"/>
<path d="M440.109 436.779C447.233 436.779 453.008 433.353 453.008 429.126C453.008 424.9 447.233 421.474 440.109 421.474C432.985 421.474 427.21 424.9 427.21 429.126C427.21 433.353 432.985 436.779 440.109 436.779Z" fill="#3F3D56"/>
<path d="M204.854 309.533C205.514 309.533 206.049 308.998 206.049 308.337C206.049 307.676 205.514 307.14 204.854 307.14C204.194 307.14 203.659 307.676 203.659 308.337C203.659 308.998 204.194 309.533 204.854 309.533Z" fill="#3F3D56"/>
<path d="M201.276 319.102C202.068 319.102 202.71 318.458 202.71 317.665C202.71 316.872 202.068 316.229 201.276 316.229C200.484 316.229 199.842 316.872 199.842 317.665C199.842 318.458 200.484 319.102 201.276 319.102Z" fill="#3F3D56"/>
<path d="M206.527 315.272L220.86 308.577" stroke="#3F3D56" stroke-miterlimit="10"/>
<path d="M333.497 346.398L293.036 369.793C287.157 373.192 285.143 380.72 288.537 386.608C291.931 392.495 299.448 394.512 305.327 391.113L345.788 367.719C351.667 364.32 353.681 356.791 350.287 350.904C346.893 345.017 339.376 342.999 333.497 346.398Z" fill="#F86D70"/>
<path d="M369.687 364.865L329.226 388.26C323.347 391.659 321.333 399.187 324.727 405.075C328.121 410.962 335.638 412.979 341.517 409.58L381.978 386.186C387.857 382.787 389.871 375.258 386.477 369.371C383.083 363.484 375.566 361.466 369.687 364.865Z" fill="#6C63FF"/>
<path d="M300.72 325.202L260.259 348.597C254.381 351.996 252.366 359.524 255.76 365.412C259.155 371.299 266.672 373.316 272.551 369.917L313.012 346.523C318.891 343.123 320.905 335.595 317.511 329.708C314.116 323.82 306.599 321.803 300.72 325.202Z" fill="#6C63FF"/>
</svg>
