<svg width="80" height="80" viewBox="0 0 80 80" fill="none" xmlns="http://www.w3.org/2000/svg">
<path d="M19.3448 16.4063H55.9934C59.2975 16.4063 61.9854 19.1049 61.9854 22.422V38.4465C61.9854 39.0939 62.5101 39.6184 63.1573 39.6184C63.8045 39.6184 64.3292 39.0939 64.3292 38.4465V22.422C64.3292 17.8125 60.5898 14.0625 55.9934 14.0625H19.3448C18.6976 14.0625 18.1729 14.587 18.1729 15.2344C18.1729 15.8817 18.6976 16.4063 19.3448 16.4063Z" fill="#CB0F4C"/>
<path d="M47.8686 52.5877H25.77C25.4261 52.5877 25.0995 52.7388 24.8768 53.0009L18.2366 60.8169L11.5966 53.0008C11.374 52.7386 11.0474 52.5875 10.7035 52.5875H8.33582C5.03174 52.5875 2.34376 49.8889 2.34376 46.5718V22.422C2.34376 19.1049 5.03174 16.4063 8.33582 16.4063H13.9107C14.5579 16.4063 15.0826 15.8818 15.0826 15.2344C15.0826 14.587 14.5579 14.0625 13.9107 14.0625H8.33582C3.73939 14.0625 0 17.8126 0 22.422V46.5719C0 51.1814 3.73939 54.9315 8.33582 54.9315H10.1615L17.3437 63.3855C17.5663 63.6477 17.8929 63.7988 18.2368 63.7988C18.5807 63.7988 18.9073 63.6477 19.1299 63.3855L26.3121 54.9315H47.8686C48.5158 54.9315 49.0405 54.4069 49.0405 53.7596C49.0405 53.1122 48.5158 52.5877 47.8686 52.5877Z" fill="#CB0F4C"/>
<path d="M34.5826 69.8951H23.9288C23.2817 69.8951 22.757 70.4196 22.757 71.067C22.757 71.7143 23.2817 72.2389 23.9288 72.2389H34.5826C36.0714 72.2389 37.2826 73.4539 37.2826 74.9475C37.2826 76.4411 36.0714 77.6562 34.5826 77.6562H5.04377C3.55501 77.6562 2.34376 76.4411 2.34376 74.9475C2.34376 73.4539 3.55501 72.2389 5.04377 72.2389H6.08049C6.45643 72.2389 6.80956 72.0585 7.02987 71.754L9.06629 68.9401L11.1027 71.754C11.323 72.0584 11.6761 72.2389 12.0521 72.2389H18.5102C19.1574 72.2389 19.6821 71.7143 19.6821 71.067C19.6821 70.4196 19.1574 69.8951 18.5102 69.8951H12.6505L10.0157 66.2541C9.79535 65.9498 9.44222 65.7693 9.06629 65.7693C8.69035 65.7693 8.33722 65.9496 8.11691 66.2541L5.48205 69.8951H5.04377C2.26267 69.8951 0 72.1617 0 74.9475C0 77.7334 2.26267 80 5.04377 80H34.5826C37.3637 80 39.6264 77.7334 39.6264 74.9475C39.6264 72.1617 37.3637 69.8951 34.5826 69.8951Z" fill="#CB0F4C"/>
<path d="M45.4157 10.1048H49.824C50.4712 10.1048 50.9958 9.58031 50.9958 8.93297C50.9958 8.28563 50.4712 7.76109 49.824 7.76109H45.4157C43.9269 7.76109 42.7156 6.54609 42.7156 5.0525C42.7156 3.55891 43.9269 2.34375 45.4157 2.34375H74.9545C76.4433 2.34375 77.6546 3.55875 77.6546 5.05234C77.6546 6.54594 76.4433 7.76109 74.9545 7.76109H73.9178C73.5419 7.76109 73.1888 7.94141 72.9684 8.24594L70.932 11.0598L68.8956 8.24578C68.6753 7.94141 68.3222 7.76094 67.9462 7.76094H55.2427C54.5955 7.76094 54.0709 8.28547 54.0709 8.93281C54.0709 9.58016 54.5955 10.1047 55.2427 10.1047H67.3478L69.9827 13.7456C70.203 14.05 70.5561 14.2305 70.932 14.2305C71.308 14.2305 71.6611 14.0502 71.8814 13.7456L74.5163 10.1047H74.9545C77.7357 10.1047 79.9983 7.83812 79.9983 5.05219C79.9983 2.26656 77.7357 0 74.9545 0H45.4157C42.6346 0 40.3719 2.26656 40.3719 5.0525C40.3719 7.83828 42.6346 10.1048 45.4157 10.1048Z" fill="#CB0F4C"/>
<path d="M17.1649 39.6779C16.5177 39.6779 15.993 40.2024 15.993 40.8498C15.993 41.4972 16.5177 42.0217 17.1649 42.0217H23.4148C24.062 42.0217 24.5867 41.4972 24.5867 40.8498V34.5996C24.5867 33.9522 24.062 33.4277 23.4148 33.4277H18.3368V29.5213H23.4148C24.062 29.5213 24.5867 28.9968 24.5867 28.3494C24.5867 27.702 24.062 27.1775 23.4148 27.1775H17.1649C16.5177 27.1775 15.993 27.702 15.993 28.3494V34.5996C15.993 35.247 16.5177 35.7715 17.1649 35.7715H22.2429V39.6779H17.1649Z" fill="#CB0F4C"/>
<path d="M35.1333 29.5213C35.7805 29.5213 36.3052 28.9968 36.3052 28.3494C36.3052 27.702 35.7805 27.1775 35.1333 27.1775H28.8834C28.2362 27.1775 27.7115 27.702 27.7115 28.3494V40.8498C27.7115 41.4972 28.2362 42.0217 28.8834 42.0217H35.1333C35.7805 42.0217 36.3052 41.4972 36.3052 40.8498C36.3052 40.2024 35.7805 39.6779 35.1333 39.6779H30.0553V35.7715H35.1333C35.7805 35.7715 36.3052 35.247 36.3052 34.5996C36.3052 33.9522 35.7805 33.4277 35.1333 33.4277H30.0553V29.5213H35.1333Z" fill="#CB0F4C"/>
<path d="M40.6021 27.1775C39.9549 27.1775 39.4302 27.702 39.4302 28.3494V40.8498C39.4302 41.4972 39.9549 42.0217 40.6021 42.0217H46.8519C47.4991 42.0217 48.0238 41.4972 48.0238 40.8498V28.3494C48.0238 27.702 47.4991 27.1775 46.8519 27.1775H40.6021ZM45.68 39.6779H41.7739V29.5213H45.68V39.6779Z" fill="#CB0F4C"/>
<path d="M79.9983 53.9446C79.9981 53.3683 79.5791 52.8779 79.01 52.7877L77.3931 52.5311L76.6214 50.6688L77.583 49.3423C77.9211 48.8759 77.87 48.2329 77.4626 47.8258L74.1529 44.5163C73.7451 44.1087 73.1015 44.0579 72.6353 44.3971L71.3117 45.3593L69.4501 44.5884L69.1928 42.9708C69.1023 42.4018 68.6115 41.9832 68.0354 41.9832H68.035L63.356 41.985C62.7798 41.9852 62.289 42.4046 62.199 42.9738L61.9429 44.5921L60.083 45.3638L58.7582 44.4023C58.2915 44.0635 57.6479 44.1144 57.2407 44.5226L53.9333 47.8343C53.5263 48.2419 53.4758 48.885 53.8143 49.3509L54.7763 50.676L54.0055 52.5399L52.3897 52.7974C51.8207 52.888 51.4021 53.379 51.4022 53.9551L51.4041 58.6372C51.4043 59.2134 51.8235 59.7039 52.3925 59.7941L54.0093 60.0505L54.781 61.9129L53.8194 63.2393C53.4813 63.7057 53.5324 64.3487 53.9396 64.7559L57.2491 68.0655C57.6566 68.4728 58.3002 68.5239 58.7668 68.1847L60.0904 67.2225L61.9518 67.9934L62.2091 69.611C62.2998 70.18 62.7904 70.5986 63.3665 70.5986H63.367L68.0459 70.5966C68.6221 70.5963 69.1128 70.1771 69.2028 69.608L69.459 67.9895L71.319 67.2178L72.6439 68.1795C73.1104 68.5183 73.754 68.4672 74.1614 68.0592L77.4687 64.7474C77.8758 64.3399 77.9262 63.697 77.588 63.2309L76.6259 61.9057L77.3967 60.0417L79.0125 59.7844C79.5816 59.6938 80.0003 59.2028 80 58.6267L79.9983 53.9446ZM76.3805 57.8305C75.978 57.8945 75.6376 58.1633 75.4819 58.5398L74.2098 61.6158C74.0542 61.9922 74.1051 62.4226 74.3444 62.7521L75.1042 63.7987L73.2108 65.6948L72.1648 64.9356C71.8347 64.696 71.4039 64.6453 71.0273 64.8015L67.9553 66.0762C67.5789 66.2325 67.3107 66.5729 67.247 66.9754L67.0446 68.2536L64.3668 68.2547L64.1635 66.9776C64.0995 66.5753 63.831 66.235 63.4545 66.079L60.3807 64.8062C60.2363 64.7463 60.0841 64.7171 59.9324 64.7171C59.6885 64.7171 59.4468 64.7932 59.2432 64.9412L58.1985 65.7006L56.304 63.806L57.0635 62.7582C57.3026 62.4283 57.3532 61.998 57.1972 61.6218L55.9236 58.5475C55.7676 58.1709 55.4271 57.9025 55.0246 57.8387L53.7479 57.6362L53.7468 54.9549L55.0226 54.7515C55.4251 54.6874 55.7654 54.4187 55.921 54.0421L57.193 50.9661C57.3488 50.5897 57.2977 50.1594 57.0583 49.8298L56.2985 48.7833L58.1919 46.8873L59.2379 47.6464C59.568 47.8862 59.999 47.9367 60.3754 47.7804L63.4474 46.5057C63.8238 46.3495 64.092 46.0088 64.1557 45.6063L64.3579 44.3284L67.0357 44.3274L67.2389 45.6045C67.3029 46.0068 67.5714 46.3471 67.9479 46.5031L71.0218 47.7759C71.3987 47.9318 71.8293 47.8808 72.1592 47.6411L73.2039 46.8817L75.0986 48.7762L74.339 49.8239C74.1 50.1538 74.0493 50.5841 74.2053 50.9603L75.4792 54.0344C75.6353 54.411 75.9758 54.6795 76.3783 54.7432L77.6551 54.9457L77.6562 57.6272L76.3805 57.8305Z" fill="#CB0F4C"/>
<path d="M70.6767 55.1182C70.0295 55.1182 69.5048 55.6428 69.5048 56.2901C69.5048 58.3873 67.7986 60.0935 65.7014 60.0935C63.6042 60.0935 61.8979 58.3873 61.8979 56.2901C61.8979 54.1928 63.6042 52.4866 65.7014 52.4866C66.2506 52.4866 66.7801 52.6008 67.275 52.8261C67.8642 53.0946 68.559 52.8341 68.8272 52.2451C69.0953 51.6559 68.8351 50.9611 68.2461 50.693C67.4442 50.328 66.5881 50.1428 65.7014 50.1428C62.3118 50.1428 59.5541 52.9004 59.5541 56.2899C59.5541 59.6795 62.3118 62.437 65.7014 62.437C69.0909 62.437 71.8486 59.6795 71.8486 56.2899C71.8486 55.6428 71.3239 55.1182 70.6767 55.1182Z" fill="#CB0F4C"/>
</svg>
